<svg width="38" height="30" viewBox="0 0 38 30" fill="none" xmlns="http://www.w3.org/2000/svg">
<path d="M37.0006 10.2884L37.0163 10.28L37.0006 10.2884ZM37.0006 10.2884L37.0163 10.2801M37.0006 10.2884L37.0163 10.2801M37.0163 10.2801L37.0469 10.2638L37.0163 10.2801ZM25.0213 19.8432C25.3285 19.5853 25.5924 19.3637 25.7719 19.1909L25.805 19.1654C31.45 14.8179 35.2008 11.8928 36.9991 10.4003L36.9991 26.2493L36.9991 26.2513C37.0008 26.6818 36.9231 27.1075 36.7706 27.5039C36.6181 27.9003 36.3945 28.2587 36.114 28.5593C35.8337 28.8597 35.5022 29.0963 35.1396 29.257C34.7771 29.4177 34.3899 29.4999 33.9995 29.4999L3.52597 29.4999L3.52215 29.4999C3.13006 29.5029 2.7406 29.4229 2.37572 29.2636C2.01072 29.1042 1.6767 28.8682 1.39411 28.5675C1.11142 28.2667 0.885863 27.9073 0.732003 27.5093C0.578097 27.1112 0.499314 26.6835 0.501065 26.2513V26.2493V10.357C2.13318 11.6901 5.86609 14.6137 11.6928 19.1227C11.8313 19.2612 12.1452 19.544 12.6801 19.9907C13.2478 20.4648 13.6954 20.8366 14.0721 21.0892C14.3316 21.2633 14.6459 21.4653 14.9994 21.6925C15.1293 21.776 15.2645 21.8629 15.4042 21.9531L15.4082 21.9556C15.9383 22.2906 16.5047 22.5573 17.0952 22.7499L17.0952 22.75L17.1026 22.7523C17.6362 22.9171 18.1888 23.0037 18.7451 23.0093V23.0093L18.7506 23.0093C19.2464 23.0088 19.7396 22.9363 20.2164 22.7942C20.6671 22.6631 21.108 22.4973 21.5358 22.2985L21.5359 22.2986L21.5463 22.2934C22.0027 22.0682 22.4425 21.8072 22.8621 21.5128L22.8622 21.5129L22.8709 21.5065C22.9785 21.4274 23.0882 21.3483 23.1969 21.2699C23.4949 21.0548 23.7846 20.8457 23.9997 20.6621C24.1258 20.5545 24.2767 20.4366 24.4518 20.2997L24.4578 20.295C24.6322 20.1588 24.8262 20.007 25.0213 19.8432ZM19.9564 19.128L19.9401 19.136L19.9244 19.145C19.5615 19.3554 19.1618 19.4779 18.7533 19.5059C18.3414 19.4724 17.9389 19.3491 17.5704 19.1418L17.5613 19.1367L17.552 19.132C17.1064 18.9052 16.6719 18.6538 16.2506 18.3786C15.9261 18.1624 15.4463 17.789 14.8032 17.2473C14.4531 16.9344 14.0814 16.6497 13.6908 16.3955C7.74186 11.7662 3.51081 8.41417 0.994385 6.33685L0.994498 6.33671L0.983976 6.32849C0.831796 6.20955 0.706157 6.0502 0.620778 5.86224L0.171276 6.06644L0.620778 5.86224C0.535331 5.67414 0.493659 5.46495 0.500782 5.25341L0.501065 5.245V5.23659V3.75074H0.501069L0.501061 3.74872C0.499314 3.31653 0.578098 2.88885 0.732003 2.49073C0.885862 2.09273 1.11142 1.73332 1.39411 1.43252C1.6767 1.13182 2.01072 0.895787 2.37572 0.736408C2.7406 0.57708 3.13006 0.497088 3.52215 0.500081L3.52215 0.500096H3.52597H33.9995C34.3899 0.500092 34.7771 0.582301 35.1396 0.742994C35.5022 0.903736 35.8337 1.14028 36.114 1.44072L36.4796 1.0996L36.114 1.44072C36.3945 1.74127 36.6181 2.09968 36.7706 2.49614C36.9231 2.89249 37.0008 3.31825 36.9991 3.74873V3.75074V5.23659V5.24415L36.9993 5.2517C37.0057 5.46359 36.9654 5.67277 36.8826 5.86198L37.3407 6.06236L36.8826 5.86198C36.8 6.05082 36.6784 6.21324 36.5299 6.33786C34.1381 8.31048 29.8992 11.6621 23.8093 16.3958C23.4246 16.6475 23.0607 16.9326 22.7211 17.2481C22.0668 17.7837 21.5849 18.1595 21.2691 18.3824C20.8461 18.6594 20.4076 18.9084 19.9564 19.128Z" fill="currentColor" stroke="currentColor"/>
</svg>
