<svg width="169" height="66" viewBox="0 0 169 66" fill="none" xmlns="http://www.w3.org/2000/svg">
<path d="M0 32C0 14.3269 14.3269 0 32 0H72C73.1046 0 74 0.895431 74 2V64C74 65.1046 73.1046 66 72 66H32C14.3269 66 0 51.6731 0 34V32Z" fill="#3F4869"/>
<path d="M61.5738 24.3883V14.3519L32.7805 14.2068C28.6341 14.2068 24.9756 15.7541 21.8049 18.8488C18.5854 21.9918 17.3115 25.7634 17.3115 30.4537V36.5463C17.3115 41.2366 18.5854 44.9841 21.8049 48.0787C25.0732 51.2217 28.6929 52.6481 32.6441 52.6481H60.6885L65.1148 57H31.9756C26.9024 57 22.2927 55.0658 18.1463 51.1975C14.0488 47.3776 12 42.5905 12 36.8364V30.1636C12 24.4578 14.0976 19.6708 18.2927 15.8025C22.4878 11.9342 27.1463 10 32.2683 10H66V21.8145L61.5738 24.3883Z" fill="white"/>
<path d="M53.375 29.1944V21.3514H35.3375C32.734 21.3514 30.6631 22.7215 28.6604 24.6292C26.6576 26.5369 25.6563 28.8897 25.6563 31.6877V35.2646C25.6563 38.1262 26.6576 40.5108 28.6604 42.4185C30.6631 44.3262 32.8007 45.6486 35.3375 45.6486L53.5952 45.5556L57.119 49H34.7686C31.2972 49 28.1263 47.7282 25.2558 45.1846C22.4186 42.6728 21 39.4933 21 35.6462V31.2585C21 27.5067 22.452 24.359 25.3559 21.8154C28.2932 19.2718 31.5142 18 35.0189 18H58V26.5228L53.375 29.1944Z" fill="#EC2F2F"/>
<path d="M47.375 32.65V27.55H37.3125C35.125 27.55 34.4844 27.5892 33.3478 28.6354C32.2111 29.6815 31.6428 30.9718 31.6428 32.5062V34.4677C31.6428 36.0369 32.2111 37.3446 33.3478 38.3908C34.4844 39.4369 35.125 39.45 37.0946 39.45H47.375L50 42H36.8146C34.8444 42 33.0447 41.3026 31.4154 39.9077C29.8051 38.5303 29 36.7867 29 34.6769V32.2708C29 30.2133 29.8241 28.4872 31.4723 27.0923C33.1394 25.6974 34.9675 25 36.9567 25H50V31.1377L47.375 32.65Z" fill="white"/>
<path d="M98.502 11.5948L98.4551 8.91321H93.7822C93.0842 8.91321 92.4747 9.17458 91.9537 9.69732C91.4432 10.2096 91.188 10.8682 91.188 11.6733V12.6612C91.188 13.4662 91.438 14.1249 91.9381 14.6372C92.4382 15.1599 93.0217 15.4213 93.6885 15.4213H100.471V17.2561H93.329C92.2246 17.2561 91.2244 16.8379 90.3284 16.0015C89.4428 15.1756 89 14.1301 89 12.8651V11.4223C89 10.1782 89.4636 9.13276 90.3909 8.28593C91.3078 7.4391 92.3392 7.01568 93.4853 7.01568H100.581V11.5948H98.502Z" fill="#3F4869"/>
<path d="M114.149 8.86617H109.179V17.2247H106.975V8.86617H102.099V7.03136H114.149V8.86617Z" fill="#3F4869"/>
<path d="M126.031 17.2247H123.577L122.67 15.3742H115.247L114.341 17.2247H111.871L117.201 7H120.779L126.031 17.2247ZM121.764 13.5551L119.482 8.85048H118.451L116.154 13.5551H121.764Z" fill="#3F4869"/>
<path d="M132.529 8.81912L132.2 12.081C132.013 13.7328 131.56 15.0188 130.841 15.9388C130.122 16.8588 129.043 17.3188 127.606 17.3188H126.512V15.5154H127.199C128.095 15.5154 128.778 15.2331 129.247 14.6685C129.715 14.104 130.028 13.1735 130.184 11.8771L130.763 7H139.311V17.2247H137.076V8.81912H132.529Z" fill="#3F4869"/>
<path d="M141.81 7.01568L143.998 7V10.8892H149.953C151.078 10.8892 151.927 11.208 152.5 11.8458C153.073 12.4835 153.36 13.2206 153.36 14.0569C153.36 14.4542 153.297 14.8306 153.172 15.186C153.047 15.552 152.854 15.8865 152.594 16.1897C152.323 16.5033 151.964 16.7542 151.516 16.9424C151.068 17.1306 150.552 17.2247 149.968 17.2247H141.81V7.01568ZM143.998 15.3899H149.718C150.198 15.3899 150.557 15.254 150.797 14.9822C151.036 14.7103 151.156 14.4019 151.156 14.0569C151.156 13.7119 151.036 13.4035 150.797 13.1317C150.557 12.8599 150.198 12.724 149.718 12.724H143.998V15.3899Z" fill="#3F4869"/>
<path d="M98.502 30.9668L98.4551 28.2852H93.7822C93.0842 28.2852 92.4747 28.5465 91.9537 29.0693C91.4432 29.5816 91.188 30.2402 91.188 31.0452V32.0332C91.188 32.8382 91.438 33.4968 91.9381 34.0091C92.4382 34.5319 93.0217 34.7932 93.6885 34.7932H100.471V36.628H93.329C92.2246 36.628 91.2244 36.2098 90.3284 35.3735C89.4428 34.5475 89 33.5021 89 32.2371V30.7943C89 29.5502 89.4636 28.5047 90.3909 27.6579C91.3078 26.8111 92.3392 26.3876 93.4853 26.3876H100.581V30.9668H98.502Z" fill="#3F4869"/>
<path d="M114.149 28.2381H109.179V36.5967H106.975V28.2381H102.099V26.4033H114.149V28.2381Z" fill="#3F4869"/>
<path d="M123.306 32.7389L117.351 32.7232V36.581H115.148V26.4033H123.306C123.889 26.4033 124.405 26.4974 124.853 26.6856C125.301 26.8738 125.66 27.1247 125.931 27.4383C126.213 27.7624 126.411 28.097 126.525 28.442C126.65 28.7975 126.713 29.1738 126.713 29.5711C126.713 30.4075 126.426 31.1445 125.853 31.7823C125.28 32.42 124.431 32.7389 123.306 32.7389ZM123.071 28.2224H117.351V30.8884H123.071C123.551 30.8884 123.91 30.7525 124.15 30.4807C124.389 30.2088 124.509 29.9004 124.509 29.5554C124.509 29.2104 124.389 28.902 124.15 28.6302C123.91 28.3584 123.551 28.2224 123.071 28.2224Z" fill="#3F4869"/>
<path d="M135.964 36.5967L132.385 36.628C131.28 36.628 130.28 36.2098 129.384 35.3735C128.499 34.5475 128.056 33.5021 128.056 32.2371V30.7943C128.056 29.5502 128.519 28.5047 129.447 27.6579C130.374 26.8111 131.405 26.3876 132.541 26.3876H135.854C137 26.3876 138.032 26.8058 138.949 27.6422C139.855 28.4681 140.308 29.5136 140.308 30.7786V32.1586C140.308 33.4237 139.866 34.4796 138.98 35.3264C138.094 36.1733 137.089 36.5967 135.964 36.5967ZM138.073 31.0452H138.042C138.042 30.2507 137.792 29.592 137.292 29.0693C136.792 28.5465 136.177 28.2852 135.448 28.2852H132.822C132.124 28.2852 131.515 28.5465 130.994 29.0693C130.483 29.5816 130.228 30.2402 130.228 31.0452V32.0332C130.228 32.8382 130.478 33.4968 130.978 34.0091C131.478 34.5319 132.067 34.7932 132.744 34.7932H135.589C136.245 34.7932 136.823 34.5319 137.323 34.0091C137.823 33.4968 138.073 32.8382 138.073 32.0332V31.0452Z" fill="#3F4869"/>
<path d="M152.003 29.1947L144.407 36.5967H142.376V26.419H144.61V33.8053L152.237 26.419H154.206V36.5967H152.003V29.1947ZM148.408 25.9485H148.377C147.533 25.9485 146.84 25.6349 146.298 25.0076C145.756 24.3908 145.486 23.6851 145.486 22.8905H146.908C146.908 23.2774 147.059 23.6537 147.361 24.0197C147.663 24.3856 148.007 24.5685 148.392 24.5685C148.809 24.5685 149.169 24.396 149.471 24.051C149.773 23.6956 149.924 23.3035 149.924 22.8749H151.346C151.346 23.7008 151.075 24.4169 150.533 25.0233C149.981 25.6401 149.273 25.9485 148.408 25.9485Z" fill="#3F4869"/>
<path d="M98.502 50.3388L98.4551 47.6571H93.7822C93.0842 47.6571 92.4747 47.9185 91.9537 48.4412C91.4432 48.9535 91.188 49.6122 91.188 50.4172V51.4052C91.188 52.2102 91.438 52.8688 91.9381 53.3811C92.4382 53.9038 93.0217 54.1652 93.6885 54.1652H100.471V56H93.329C92.2246 56 91.2244 55.5818 90.3284 54.7454C89.4428 53.9195 89 52.874 89 51.609V50.1663C89 48.9222 89.4636 47.8767 90.3909 47.0299C91.3078 46.183 92.3392 45.7596 93.4853 45.7596H100.581V50.3388H98.502Z" fill="#3F4869"/>
<path d="M104.959 47.6415V49.7585H113.617V51.6247H104.959V54.1338H114.086V55.9686H102.725V45.7596H114.086V47.6415H104.959Z" fill="#3F4869"/>
<path d="M124.435 52.1108L118.481 52.0952V55.953H116.277V45.7753H124.435C125.019 45.7753 125.534 45.8694 125.982 46.0576C126.43 46.2458 126.79 46.4967 127.061 46.8103C127.342 47.1344 127.54 47.469 127.655 47.814C127.78 48.1694 127.842 48.5458 127.842 48.9431C127.842 49.7794 127.556 50.5165 126.983 51.1542C126.41 51.792 125.56 52.1108 124.435 52.1108ZM124.201 47.5944H118.481V50.2604H124.201C124.68 50.2604 125.039 50.1245 125.279 49.8526C125.519 49.5808 125.639 49.2724 125.639 48.9274C125.639 48.5824 125.519 48.274 125.279 48.0021C125.039 47.7303 124.68 47.5944 124.201 47.5944Z" fill="#3F4869"/>
<path d="M137.984 55.9686H129.357V45.7753H137.984C139.005 45.7753 139.802 46.0367 140.375 46.5594C140.938 47.0821 141.219 47.7251 141.219 48.4883C141.219 48.9797 141.078 49.4188 140.797 49.8056C140.516 50.2029 140.151 50.5008 139.703 50.6995C140.818 51.1595 141.375 51.9802 141.375 53.1615C141.375 53.9457 141.089 54.6095 140.516 55.1532C139.943 55.6968 139.099 55.9686 137.984 55.9686ZM137.562 51.6717L131.592 51.6561V54.1182H137.421C137.963 54.1182 138.369 53.9979 138.64 53.7575C138.901 53.5275 139.031 53.2347 139.031 52.8793C139.031 52.5447 138.901 52.2624 138.64 52.0324C138.369 51.792 138.01 51.6717 137.562 51.6717ZM137.546 47.6258H131.592V49.7429H137.546C137.994 49.7429 138.322 49.6435 138.531 49.4449C138.75 49.2358 138.859 48.9849 138.859 48.6922C138.859 48.3994 138.75 48.1485 138.531 47.9394C138.302 47.7303 137.973 47.6258 137.546 47.6258Z" fill="#3F4869"/>
<path d="M152.903 48.5667L145.308 55.9686H143.276V45.791H145.511V53.1772L153.137 45.791H155.107V55.9686H152.903V48.5667Z" fill="#3F4869"/>
<path d="M166.921 50.3388L166.875 47.6571H162.202C161.504 47.6571 160.894 47.9185 160.373 48.4412C159.863 48.9535 159.607 49.6122 159.607 50.4172V51.4052C159.607 52.2102 159.857 52.8688 160.358 53.3811C160.858 53.9038 161.441 54.1652 162.108 54.1652H168.891V56H161.748C160.644 56 159.644 55.5818 158.748 54.7454C157.862 53.9195 157.419 52.874 157.419 51.609V50.1663C157.419 48.9222 157.883 47.8767 158.81 47.0299C159.727 46.183 160.759 45.7596 161.905 45.7596H169V50.3388H166.921Z" fill="#3F4869"/>
</svg>
