<svg width="25" height="30" viewBox="0 0 25 30" fill="none" xmlns="http://www.w3.org/2000/svg">
<path d="M12.5 0.5C15.678 0.5 18.7287 1.79839 20.9803 4.11431C23.2324 6.43071 24.5 9.57535 24.5 12.8571C24.5 17.9304 20.7296 23.3771 13.0279 29.3184C12.874 29.4371 12.6888 29.5 12.5 29.5C12.3112 29.5 12.126 29.4371 11.9721 29.3184C4.27041 23.3771 0.5 17.9304 0.5 12.8571C0.5 9.57535 1.76761 6.43071 4.01966 4.11431C6.27125 1.79839 9.32202 0.5 12.5 0.5ZM12.5 8.07143C11.2577 8.07143 10.0692 8.57916 9.19522 9.47815C8.32167 10.3767 7.83333 11.5924 7.83333 12.8571C7.83333 14.1219 8.32167 15.3376 9.19522 16.2361C10.0692 17.1351 11.2577 17.6429 12.5 17.6429C13.7423 17.6429 14.9308 17.1351 15.8048 16.2361C16.6783 15.3376 17.1667 14.1219 17.1667 12.8571C17.1667 11.5924 16.6783 10.3767 15.8048 9.47815C14.9308 8.57916 13.7423 8.07143 12.5 8.07143Z" fill="currentColor" stroke="currentColor"/>
</svg>
