<svg width="12" height="12" viewBox="0 0 12 12" fill="none" xmlns="http://www.w3.org/2000/svg">
<path d="M11.6576 8.48143L9.03258 7.35643C8.92044 7.30864 8.79581 7.29857 8.67746 7.32773C8.5591 7.3569 8.45342 7.42372 8.37633 7.51815L7.21383 8.93846C5.38939 8.07825 3.92114 6.61 3.06094 4.78557L4.48125 3.62307C4.57586 3.54612 4.64283 3.44044 4.67201 3.32203C4.70119 3.20361 4.69099 3.07892 4.64297 2.96682L3.51797 0.341819C3.46526 0.220977 3.37204 0.122314 3.25438 0.0628418C3.13672 0.00336996 3.00199 -0.0131829 2.87344 0.0160375L0.435938 0.578537C0.311993 0.607159 0.201409 0.676946 0.122235 0.77651C0.0430606 0.876074 -2.85518e-05 0.999534 1.41942e-08 1.12674C1.41942e-08 7.13846 4.87266 12.0017 10.875 12.0017C11.0022 12.0018 11.1258 11.9588 11.2254 11.8796C11.325 11.8004 11.3948 11.6898 11.4234 11.5658L11.9859 9.1283C12.015 8.99912 11.9981 8.86385 11.9381 8.74579C11.8782 8.62772 11.779 8.53424 11.6576 8.48143Z" fill="currentColor"/>
</svg>
