<svg width="15" height="15" viewBox="0 0 17 17" fill="none" xmlns="http://www.w3.org/2000/svg">
<path d="M8.50017 0.583984C6.9344 0.583984 5.40379 1.04829 4.1019 1.91818C2.80001 2.78808 1.78531 4.02449 1.18612 5.47107C0.586926 6.91766 0.43015 8.50943 0.735616 10.0451C1.04108 11.5808 1.79507 12.9914 2.90224 14.0986C4.0094 15.2057 5.42002 15.9597 6.9557 16.2652C8.49138 16.5707 10.0832 16.4139 11.5297 15.8147C12.9763 15.2155 14.2127 14.2008 15.0826 12.8989C15.9525 11.597 16.4168 10.0664 16.4168 8.50065C16.4168 7.46102 16.2121 6.43157 15.8142 5.47107C15.4164 4.51058 14.8332 3.63785 14.0981 2.90272C13.363 2.16759 12.4902 1.58445 11.5297 1.1866C10.5692 0.788755 9.5398 0.583984 8.50017 0.583984ZM11.6668 9.29232H8.50017C8.2902 9.29232 8.08884 9.20891 7.94037 9.06044C7.79191 8.91198 7.7085 8.71061 7.7085 8.50065V5.33398C7.7085 5.12402 7.79191 4.92266 7.94037 4.77419C8.08884 4.62573 8.2902 4.54232 8.50017 4.54232C8.71013 4.54232 8.91149 4.62573 9.05996 4.77419C9.20843 4.92266 9.29183 5.12402 9.29183 5.33398V7.70898H11.6668C11.8768 7.70898 12.0782 7.79239 12.2266 7.94086C12.3751 8.08932 12.4585 8.29069 12.4585 8.50065C12.4585 8.71061 12.3751 8.91198 12.2266 9.06044C12.0782 9.20891 11.8768 9.29232 11.6668 9.29232Z" fill="currentColor"/>
</svg>
