<svg width="25" height="25" viewBox="0 0 25 25" fill="none" xmlns="http://www.w3.org/2000/svg">
<path d="M16.3412 0H8.67125C1.66625 0 0 1.66625 0 8.65875V16.3288C0 23.3325 1.65375 25 8.65875 25H16.3288C23.3325 25 25 23.3463 25 16.3412V8.67125C25 1.66625 23.3463 0 16.3412 0ZM20.1825 17.8375H18.3587C17.6688 17.8375 17.4613 17.2787 16.2238 16.0413C15.1438 15 14.6875 14.87 14.4137 14.87C14.0363 14.87 13.9325 14.9738 13.9325 15.495V17.135C13.9325 17.5788 13.7887 17.8387 12.63 17.8387C11.5054 17.7632 10.4149 17.4215 9.44825 16.8419C8.48159 16.2623 7.66646 15.4613 7.07 14.505C5.65396 12.7425 4.66868 10.6739 4.1925 8.46375C4.1925 8.19 4.29625 7.9425 4.8175 7.9425H6.64C7.10875 7.9425 7.2775 8.15125 7.46125 8.6325C8.34625 11.2375 9.85625 13.5025 10.4688 13.5025C10.7037 13.5025 10.8063 13.3988 10.8063 12.8125V10.13C10.7288 8.90625 10.0787 8.8025 10.0787 8.36C10.0871 8.24329 10.1406 8.13441 10.2279 8.05647C10.3151 7.97853 10.4293 7.93765 10.5463 7.9425H13.4113C13.8025 7.9425 13.9325 8.1375 13.9325 8.60625V12.2262C13.9325 12.6175 14.1012 12.7475 14.2188 12.7475C14.4537 12.7475 14.635 12.6175 15.065 12.1875C15.9886 11.0612 16.7432 9.80635 17.305 8.4625C17.3624 8.30108 17.4711 8.16288 17.6144 8.06899C17.7577 7.9751 17.9278 7.93068 18.0988 7.9425H19.9225C20.4688 7.9425 20.585 8.21625 20.4688 8.60625C19.8056 10.0918 18.9851 11.5019 18.0212 12.8125C17.825 13.1125 17.7463 13.2688 18.0212 13.62C18.2025 13.8938 18.8412 14.4275 19.2712 14.935C19.8961 15.5583 20.415 16.2795 20.8075 17.07C20.9637 17.5775 20.7025 17.8387 20.1825 17.8387V17.8375Z" fill="currentColor"/>
</svg>
