<svg width="30" height="30" viewBox="0 0 30 30" fill="none" xmlns="http://www.w3.org/2000/svg">
<g >
<path d="M2.57316 22.4225L2.62738 22.2226L2.52434 22.0429C1.31165 19.9281 0.604528 17.4093 0.604528 14.8958C0.604528 6.94445 7.06893 0.5 15.0523 0.5C18.8912 0.5 22.5276 2.00944 25.2568 4.72917C27.979 7.44193 29.3971 11.0637 29.5 14.7985C29.4963 22.7467 23.0333 29.1875 15.0523 29.1875C12.6283 29.1875 10.3031 28.584 8.17563 27.4734L8.00433 27.384L7.81742 27.433L0.708657 29.2973L2.57316 22.4225ZM17.2713 22.3395L17.3027 22.352L17.3356 22.3602C18.2401 22.5855 19.1432 22.587 19.8326 22.4733C20.2988 22.4053 20.9152 22.1303 21.4414 21.7853C21.9595 21.4457 22.5179 20.9555 22.7328 20.3844C22.9062 19.9237 22.9947 19.4872 23.0245 19.1155C23.0534 18.7553 23.03 18.4198 22.948 18.1747L22.9105 18.0626L22.8268 17.9792C22.7224 17.8751 22.592 17.7954 22.4678 17.7266C22.3436 17.6579 22.1835 17.5779 21.9896 17.4813C21.7752 17.3463 21.2221 17.0598 20.7108 16.8051C20.434 16.6672 20.156 16.5319 19.9261 16.424C19.709 16.3221 19.5034 16.2295 19.3911 16.1922C19.383 16.1895 19.3744 16.1866 19.3653 16.1835C19.2295 16.1379 18.9824 16.0548 18.731 16.0776C18.5783 16.0914 18.4198 16.1424 18.2743 16.2503C18.1328 16.3552 18.0284 16.4952 17.9503 16.6508C17.8741 16.8027 17.6736 17.0755 17.4359 17.365C17.2062 17.6447 16.9827 17.8912 16.8944 17.9792C16.8441 18.0294 16.818 18.0462 16.809 18.051C16.7938 18.0505 16.7419 18.0437 16.6341 17.99C16.5635 17.9548 16.4774 17.9156 16.3768 17.8699C15.8394 17.6256 14.8908 17.1944 13.7101 16.1871C12.6115 15.1903 11.9186 14.0978 11.7361 13.7341L11.7261 13.7142C11.727 13.7132 11.7278 13.7122 11.7287 13.7112C11.7588 13.6758 11.796 13.6383 11.8512 13.5833C11.9198 13.515 12.0077 13.4013 12.0776 13.3109C12.0906 13.2941 12.103 13.2781 12.1145 13.2634C12.2061 13.1461 12.2937 13.0382 12.3738 12.9583C12.6407 12.6924 12.7758 12.4229 12.8796 12.2159L12.8859 12.2034C13.0613 11.854 13.0613 11.4794 12.8859 11.1299L12.8495 11.0573L12.8329 11.0408C12.8297 11.0344 12.8259 11.0269 12.8217 11.0183C12.7957 10.9651 12.7607 10.8881 12.7175 10.7894C12.6318 10.5931 12.5225 10.3306 12.4051 10.0445C12.3318 9.86598 12.2552 9.67792 12.1796 9.4925C12.0159 9.09062 11.8573 8.70117 11.7485 8.44829C11.5689 8.03074 11.3445 7.74317 11.0382 7.60444C10.8877 7.53627 10.7483 7.51887 10.6405 7.51611C10.589 7.5148 10.5428 7.51686 10.5117 7.51837C10.5057 7.51867 10.5004 7.51893 10.4957 7.51916C10.4709 7.52038 10.4618 7.52083 10.453 7.52083H10.4517H10.4505H10.4493H10.448H10.4468H10.4456H10.4443H10.4431H10.4418H10.4406H10.4393H10.4381H10.4368H10.4356H10.4343H10.4331H10.4318H10.4305H10.4293H10.428H10.4267H10.4254H10.4242H10.4229H10.4216H10.4203H10.419H10.4178H10.4165H10.4152H10.4139H10.4126H10.4113H10.41H10.4087H10.4074H10.4061H10.4048H10.4035H10.4021H10.4008H10.3995H10.3982H10.3969H10.3956H10.3942H10.3929H10.3916H10.3902H10.3889H10.3876H10.3862H10.3849H10.3836H10.3822H10.3809H10.3795H10.3782H10.3768H10.3755H10.3741H10.3728H10.3714H10.3701H10.3687H10.3674H10.366H10.3646H10.3633H10.3619H10.3605H10.3591H10.3578H10.3564H10.355H10.3536H10.3523H10.3509H10.3495H10.3481H10.3467H10.3453H10.3439H10.3425H10.3412H10.3398H10.3384H10.337H10.3356H10.3342H10.3328H10.3314H10.3299H10.3285H10.3271H10.3257H10.3243H10.3229H10.3215H10.3201H10.3186H10.3172H10.3158H10.3144H10.313H10.3115H10.3101H10.3087H10.3072H10.3058H10.3044H10.3029H10.3015H10.3001H10.2986H10.2972H10.2958H10.2943H10.2929H10.2914H10.29H10.2885H10.2871H10.2856H10.2842H10.2827H10.2813H10.2798H10.2784H10.2769H10.2755H10.274H10.2725H10.2711H10.2696H10.2682H10.2667H10.2652H10.2638H10.2623H10.2608H10.2594H10.2579H10.2564H10.2549H10.2535H10.252H10.2505H10.249H10.2476H10.2461H10.2446H10.2431H10.2416H10.2402H10.2387H10.2372H10.2357H10.2342H10.2327H10.2312H10.2297H10.2283H10.2268H10.2253H10.2238H10.2223H10.2208H10.2193H10.2178H10.2163H10.2148H10.2133H10.2118H10.2103H10.2088H10.2073H10.2058H10.2043H10.2028H10.2013H10.1998H10.1983H10.1968H10.1953H10.1938H10.1922H10.1907H10.1892H10.1877H10.1862H10.1847H10.1832H10.1817H10.1802H10.1786H10.1771H10.1756H10.1741H10.1726H10.1711H10.1695H10.168H10.1665H10.165H10.1635H10.162H10.1604H10.1589H10.1574H10.1559H10.1543H10.1528H10.1513H10.1498H10.1483H10.1467H10.1452H10.1437H10.1422H10.1406H10.1391H10.1376H10.1361H10.1345H10.133H10.1315H10.1299H10.1284H10.1269H10.1254H10.1238H10.1223H10.1208H10.1192H10.1177H10.1162H10.1147H10.1131H10.1116H10.1101H10.1085H10.107H10.1055H10.1039H10.1024H10.1009H10.0994H10.0978H10.0963H10.0948H10.0932H10.0917H10.0902H10.0886H10.0871H10.0856H10.084H10.0825H10.081H10.0795H10.0779H10.0764H10.0749H10.0733H10.0718H10.0703H10.0687H10.0672H10.0657H10.0641H10.0626H10.0611H10.0596H10.058H10.0565H10.055H10.0534H10.0519H10.0504H10.0489H10.0473H10.0458H10.0443H10.0427H10.0412H10.0397H10.0382H10.0366H10.0351H10.0336H10.0321H10.0305H10.029H10.0275H10.026H10.0244H10.0229H10.0214H10.0199H10.0183H10.0168H10.0153H10.0138H10.0123H10.0107H10.0092H10.0077H10.0062H10.0047H10.0032H10.0016H10.0001H9.9986H9.99709H9.99557H9.99406H9.99255H9.99103H9.98952H9.98801H9.9865H9.98499H9.98348H9.98197H9.98046H9.97895H9.97744H9.97594H9.97443H9.97293H9.97142H9.96992H9.96841H9.96691H9.96541H9.96391H9.96241H9.96091H9.95941H9.95791H9.95642H9.95492H9.95343H9.95193H9.95044H9.94894H9.94745H9.94596H9.94447H9.94298H9.94149H9.94H9.93852H9.93703H9.93555H9.93406H9.93258H9.9311H9.92962H9.92814H9.92666H9.92518H9.9237H9.92223H9.92075H9.91928H9.9178H9.91633H9.91486H9.91339H9.91192H9.91045H9.90899H9.90752H9.90606H9.90459H9.90313H9.90167H9.90021H9.89875H9.89729H9.89584H9.89438H9.89293H9.89148H9.89002H9.88857H9.88713H9.88568H9.88423H9.88278H9.88134H9.8799H9.87846H9.87702H9.87558H9.87414H9.8727H9.87127H9.86983H9.8684H9.86697H9.86554H9.86411H9.86269H9.86126H9.85984H9.85842H9.85699H9.85557H9.85416H9.85274H9.85132H9.84991H9.8485H9.84709H9.84568H9.84427H9.84286H9.84146H9.84006H9.83865H9.83725H9.83586H9.83446H9.83306H9.83167H9.83028H9.82889H9.8275H9.82611H9.82473H9.82334H9.82196H9.82058H9.8192H9.81782H9.81645H9.81507H9.8137H9.81233H9.81096H9.8096H9.80823H9.80687H9.8055H9.80414H9.80279H9.80143H9.80008H9.79872H9.79737H9.79602H9.79468H9.79333H9.79199H9.79065H9.78931H9.78797H9.78663H9.7853H9.78397H9.78264H9.78131H9.77998H9.77866H9.77734H9.77602H9.7747H9.77338H9.77207H9.77076H9.76945H9.76814H9.76683H9.76553H9.76423H9.76293H9.76163H9.76033H9.75904H9.75775H9.75646H9.75517H9.75389H9.7526H9.75132H9.75004H9.74877H9.74749H9.74622H9.74495H9.74368H9.74242H9.74116H9.73989H9.73864H9.73738H9.73612H9.73487H9.73362H9.73238H9.73113H9.72989H9.72865H9.72741H9.72618H9.72494H9.72371H9.72248H9.72126C9.71424 7.52083 9.70705 7.52082 9.69967 7.52082C9.38347 7.52046 8.74089 7.51975 8.27646 8.13683C8.25326 8.16766 8.21635 8.21148 8.16974 8.26682C8.0063 8.46088 7.72352 8.79661 7.49392 9.21064C7.1811 9.77473 6.92161 10.5347 6.92161 11.5625C6.92161 12.6129 7.29938 13.6069 7.68363 14.3454C8.03527 15.0212 8.41964 15.534 8.59627 15.7283C8.59658 15.7288 8.59689 15.7293 8.5972 15.7297C8.92039 16.2189 11.3607 19.9126 15.1583 21.4968C15.7638 21.7972 16.3463 22.0046 16.7967 22.1649C16.979 22.2298 17.1396 22.2869 17.2713 22.3395ZM16.8054 18.0527C16.8053 18.0527 16.8058 18.0524 16.8068 18.0521L16.8054 18.0527ZM16.8117 18.051C16.8132 18.0508 16.8139 18.0508 16.814 18.0508L16.8117 18.051Z" fill="currentColor" stroke="currentColor"/>
</g>
</svg>
