<svg width="813" height="276" viewBox="0 0 813 276" fill="none" xmlns="http://www.w3.org/2000/svg">
<g opacity="0.1">
<path d="M108 3V30H81L81 111H121.5V84H148.5V111H216C223.161 111 230.028 113.845 235.092 118.908C240.155 123.972 243 130.839 243 138V246H270V273H162V246H189V165H148.5V192H121.5V165H54C46.8392 165 39.9716 162.155 34.9081 157.092C29.8447 152.028 27 145.161 27 138L27 30H0V3" fill="#00A0E3"/>
<rect x="189" y="3" width="54" height="162" fill="#00A0E3"/>
</g>
<g opacity="0.1">
<rect x="705" y="57" width="108" height="27" fill="#00A0E3"/>
<path d="M651 3V30H624V111H664.5H691.5H759C766.161 111 773.028 113.845 778.092 118.908C783.155 123.972 786 130.839 786 138V246H813V273H705V246H732V165H691.5H664.5H597C589.839 165 582.972 162.155 577.908 157.092C572.845 152.028 570 145.161 570 138V30H543V3" fill="#00A0E3"/>
<rect x="732" y="3" width="54" height="162" fill="#00A0E3"/>
</g>
<circle opacity="0.1" cx="407" cy="138" r="113" stroke="#00A0E3" stroke-width="50"/>
</svg>
