<svg width="87" height="87" viewBox="0 0 87 87" fill="none" xmlns="http://www.w3.org/2000/svg">
<g opacity="0.6">
<path d="M43.5365 0L41.144 0.10875L54.9553 13.92L59.7765 9.09875C71.6303 14.7175 80.1128 26.2087 81.3815 39.8387H86.819C85.0065 17.545 66.3378 0 43.5365 0Z" fill="#0C54A0"/>
<path d="M30.5228 54.23C29.834 54.23 29.1815 54.1212 28.6378 53.94C28.0964 53.7602 27.6013 53.4631 27.1878 53.07C26.789 52.7075 26.4628 52.2725 26.2453 51.7288C26.0278 51.2213 25.919 50.6413 25.919 50.025H21.2065C21.2065 51.33 21.4603 52.49 21.9678 53.4688C22.4753 54.4475 23.164 55.2812 23.9978 55.97C24.8678 56.6225 25.8465 57.13 26.9703 57.4563C28.0578 57.8188 29.2178 58 30.4503 58C31.7915 58 33.0603 57.8188 34.184 57.4563C35.344 57.0938 36.359 56.55 37.1928 55.8612C38.0265 55.1725 38.7153 54.3025 39.1865 53.2512C39.6578 52.2 39.9115 51.04 39.9115 49.735C39.9115 49.0463 39.839 48.3575 39.6578 47.705C39.4858 47.0462 39.2039 46.4212 38.824 45.8562C38.4615 45.2762 37.954 44.7688 37.374 44.2975C36.7578 43.8263 36.0328 43.4637 35.1628 43.1737C36.4731 42.5899 37.5915 41.6474 38.389 40.455C38.7515 39.9112 39.0053 39.3675 39.1865 38.7875C39.3678 38.2075 39.4403 37.6275 39.4403 37.0475C39.4403 35.7425 39.2228 34.5825 38.7878 33.5675C38.3528 32.5525 37.7365 31.7188 36.939 31.0662C36.214 30.3775 35.2353 29.87 34.1478 29.5075C33.024 29.1813 31.7915 29 30.4503 29C29.1453 29 27.949 29.1812 26.8253 29.58C25.7378 29.9787 24.759 30.5225 23.9615 31.2112C23.2003 31.9 22.584 32.6975 22.1128 33.64C21.6778 34.5825 21.4603 35.5975 21.4603 36.7212H26.1728C26.1728 36.105 26.2815 35.5613 26.499 35.09C26.7165 34.6188 27.0065 34.1838 27.4053 33.8575C27.804 33.5313 28.239 33.2413 28.7828 33.06C29.3265 32.8788 29.8703 32.77 30.5228 32.77C31.9728 32.77 33.0603 33.1325 33.749 33.8938C34.4378 34.6188 34.8003 35.67 34.8003 37.0112C34.8003 37.6637 34.6915 38.2437 34.5103 38.7875C34.329 39.3312 34.0028 39.7662 33.604 40.1287C33.2053 40.4913 32.6978 40.7813 32.1178 40.9988C31.5378 41.2163 30.8128 41.325 30.0153 41.325H27.224V45.0588H30.0153C30.8128 45.0588 31.5378 45.1313 32.1903 45.3125C32.8428 45.4937 33.3865 45.7837 33.8215 46.1462C34.2565 46.545 34.619 47.0162 34.8728 47.5962C35.1265 48.1762 35.2353 48.865 35.2353 49.6625C35.2353 51.1487 34.8003 52.2725 33.9665 53.0337C33.1328 53.8675 31.9728 54.23 30.5228 54.23ZM61.5165 32.77C60.3565 31.5738 58.979 30.6313 57.384 29.9788C55.789 29.3263 54.0128 29 52.0553 29H43.5003V58H51.8378C53.8315 58 55.6803 57.6737 57.3115 57.0212C58.9428 56.3687 60.3565 55.4625 61.5165 54.2663C62.6765 53.07 63.5828 51.62 64.199 49.9525C64.8153 48.2487 65.1415 46.3638 65.1415 44.2612V42.8113C65.1415 40.7088 64.8153 38.8237 64.199 37.12C63.5828 35.4162 62.6765 33.9663 61.5165 32.77ZM60.1028 44.225C60.1028 45.7475 59.9215 47.0888 59.5953 48.3213C59.2328 49.5175 58.7253 50.5688 58.0365 51.4025C57.3478 52.2362 56.4778 52.8888 55.4628 53.3237C54.4115 53.7587 53.2153 53.9762 51.874 53.9762H48.5753V33.06H52.0915C54.7015 33.06 56.6953 33.8938 58.0365 35.5613C59.414 37.2288 60.1028 39.6213 60.1028 42.775V44.225Z" fill="#393185"/>
<path d="M27.2965 77.865C21.3341 75.0567 16.2041 70.7465 12.4101 65.3573C8.6161 59.9682 6.28835 53.6852 5.65527 47.125H0.217773C2.06652 69.455 20.7353 87 43.5365 87L45.929 86.8913L32.1178 73.08L27.2965 77.865Z" fill="#00A0E3"/>
</g>
</svg>
