<svg width="21" height="22" viewBox="0 0 21 22" fill="none" xmlns="http://www.w3.org/2000/svg">
    <path d="M3.89834 17.3301C3.72072 17.1318 3.50845 16.9673 3.27188 16.8447C3.02833 16.717 2.76275 16.6365 2.48916 16.6075C2.45024 16.6016 2.41097 16.5984 2.37161 16.5978H2.23332C1.79473 16.5924 1.36474 16.7193 0.999765 16.9619C0.643848 17.1973 0.362332 17.5287 0.188 17.9175C0.12869 18.0554 0.0823932 18.1985 0.0497091 18.345C-0.0175463 18.6428 -0.0175463 18.9518 0.0497091 19.2496C0.0823338 19.3965 0.128631 19.5401 0.188 19.6785C0.365254 20.0636 0.646285 20.392 0.999765 20.6272C1.36343 20.8718 1.79333 20.9998 2.23194 20.994C2.40213 20.995 2.5719 20.9769 2.73808 20.9403C2.89343 20.9034 3.04487 20.8516 3.19029 20.7858L3.25528 20.75C3.28876 20.7299 3.32393 20.7129 3.36039 20.6989L3.45719 20.6617L3.50697 20.7375C3.55241 20.8157 3.6178 20.8805 3.69651 20.9254C3.77521 20.9702 3.86441 20.9934 3.95503 20.9927C4.09215 20.992 4.22362 20.9381 4.32151 20.8423C4.37341 20.7979 4.4152 20.743 4.44406 20.6811C4.47292 20.6193 4.48819 20.552 4.48884 20.4838V18.7959C4.48684 18.5238 4.43238 18.2546 4.32842 18.003C4.22483 17.7558 4.07934 17.5281 3.89834 17.3301ZM3.32581 19.2606C3.26472 19.3997 3.17793 19.526 3.06998 19.633C2.96125 19.7397 2.83249 19.8241 2.69106 19.8812C2.54399 19.941 2.3866 19.9714 2.22779 19.9708C2.0752 19.9706 1.92438 19.9382 1.78525 19.8757C1.64681 19.8147 1.52001 19.7302 1.41049 19.6261C1.29964 19.52 1.20959 19.3942 1.14498 19.2551C1.07706 19.1111 1.0421 18.9537 1.04263 18.7945C1.04288 18.6396 1.07587 18.4864 1.13944 18.345C1.20172 18.2044 1.28991 18.0767 1.39943 17.9685C1.50817 17.861 1.63563 17.7741 1.77558 17.712C1.91861 17.6496 2.07304 17.6174 2.22917 17.6174C2.3853 17.6174 2.53974 17.6496 2.68277 17.712C2.82488 17.7731 2.95431 17.8601 3.06444 17.9685C3.17393 18.0767 3.26212 18.2044 3.32443 18.345C3.388 18.4864 3.42099 18.6396 3.42123 18.7945C3.42306 18.9563 3.39054 19.1165 3.32581 19.2648V19.2606Z" fill="white"/>
    <path d="M7.57558 16.6077C7.28322 16.6186 6.99518 16.6817 6.72509 16.7938C6.46545 16.9009 6.22778 17.0547 6.02396 17.2475C5.82664 17.4404 5.66759 17.6687 5.55515 17.9205C5.43624 18.1772 5.37535 18.4568 5.37676 18.7396V20.4964C5.37439 20.5648 5.38645 20.6329 5.41218 20.6963C5.43791 20.7598 5.47673 20.8171 5.52611 20.8646C5.57243 20.9102 5.62758 20.946 5.68821 20.9697C5.74883 20.9934 5.81367 21.0046 5.87875 21.0025C6.01699 21.0101 6.15266 20.963 6.25628 20.8715C6.30481 20.8297 6.34413 20.7784 6.37174 20.7207C6.39935 20.663 6.41467 20.6003 6.4167 20.5364V18.8044C6.41273 18.6436 6.44288 18.4838 6.5052 18.3355C6.56441 18.1968 6.64933 18.0705 6.75551 17.9632C6.86458 17.855 6.99407 17.7695 7.13648 17.7115C7.2789 17.6535 7.43142 17.6242 7.58525 17.6253C7.72576 17.6234 7.86025 17.5682 7.96141 17.4709C8.00948 17.4262 8.0476 17.3719 8.07333 17.3116C8.09906 17.2512 8.11181 17.1862 8.11076 17.1206C8.1016 16.9825 8.04208 16.8526 7.94343 16.7552C7.89567 16.7066 7.83832 16.6684 7.77501 16.643C7.71169 16.6176 7.64379 16.6056 7.57558 16.6077Z" fill="white"/>
    <path d="M12.8292 19.8238C12.8016 19.7657 12.7614 19.7144 12.7117 19.6735C12.6099 19.5808 12.476 19.5314 12.3383 19.5356H12.3286C12.1903 19.533 12.0561 19.5822 11.9525 19.6735C11.8524 19.7691 11.7332 19.8424 11.6026 19.8886C11.4513 19.9396 11.2921 19.9634 11.1324 19.9589C10.9688 19.9598 10.8069 19.9269 10.6567 19.8624C10.5133 19.8007 10.3839 19.7106 10.2764 19.5976C10.1784 19.4854 10.1024 19.3558 10.0523 19.2156C9.99979 19.0695 9.97722 18.9142 9.98597 18.7592V17.6271H11.1614C11.2287 17.6262 11.2949 17.6114 11.3561 17.5836C11.4173 17.5558 11.472 17.5157 11.5168 17.4657C11.5664 17.4196 11.6061 17.364 11.6338 17.3023C11.6615 17.2407 11.6766 17.1741 11.6781 17.1065C11.6797 17.039 11.6677 16.9718 11.6428 16.9089C11.618 16.846 11.5808 16.7887 11.5334 16.7404C11.4855 16.6914 11.4273 16.6537 11.3629 16.6298C11.2986 16.606 11.2298 16.5966 11.1614 16.6025H9.98597V15.6151C9.98853 15.5496 9.97603 15.4843 9.94943 15.4243C9.92282 15.3643 9.88281 15.3112 9.83246 15.269C9.71885 15.1761 9.5755 15.1272 9.42865 15.1311C9.28389 15.1271 9.14268 15.1761 9.03176 15.269C8.98141 15.3112 8.94139 15.3643 8.91479 15.4243C8.88818 15.4843 8.87569 15.5496 8.87826 15.6151V18.7509C8.87279 19.0681 8.93599 19.3828 9.06356 19.6735C9.18205 19.9409 9.35378 20.1816 9.56833 20.3809C9.7845 20.5791 10.0372 20.7336 10.3123 20.836C10.6021 20.9434 10.909 20.9976 11.2181 20.9959C11.5029 20.9983 11.7852 20.9429 12.0479 20.8332C12.3118 20.7202 12.5527 20.5598 12.7587 20.3602C12.8029 20.3167 12.8361 20.2632 12.8555 20.2044C12.8767 20.1418 12.8861 20.0759 12.8831 20.0099C12.8779 19.9449 12.8595 19.8816 12.8292 19.8238Z" fill="white"/>
    <path d="M20.0079 20.1218L18.672 18.7952L20.0065 17.4686C20.0525 17.4206 20.0884 17.3639 20.1121 17.3019C20.1359 17.2398 20.147 17.1737 20.1448 17.1073C20.1473 17.0419 20.1363 16.9767 20.1125 16.9158C20.0888 16.8548 20.0527 16.7994 20.0065 16.7529C19.9106 16.6549 19.78 16.5985 19.6428 16.5957H19.6372C19.5737 16.596 19.5108 16.6093 19.4526 16.6347C19.3943 16.66 19.3419 16.697 19.2984 16.7433L17.9335 18.0712L16.5976 16.7557C16.4971 16.6636 16.3686 16.6077 16.2325 16.5971C16.1641 16.5944 16.0959 16.6069 16.033 16.6339C15.97 16.6609 15.9139 16.7015 15.8688 16.7529C15.7791 16.8539 15.7247 16.9811 15.7139 17.1156C15.7094 17.1779 15.7196 17.2404 15.7436 17.2981C15.7676 17.3558 15.8048 17.4071 15.8522 17.4479L17.2171 18.7938L15.8522 20.1397C15.8046 20.186 15.7675 20.242 15.7437 20.3039C15.7198 20.3657 15.7096 20.4321 15.7139 20.4982C15.7182 20.6316 15.7743 20.7582 15.8702 20.8513C15.9171 20.9004 15.9746 20.9384 16.0383 20.9623C16.102 20.9862 16.1703 20.9954 16.238 20.9892C16.3731 20.9856 16.5031 20.9371 16.6073 20.8513L17.9376 19.5302L19.2735 20.8264C19.3214 20.8797 19.38 20.9222 19.4456 20.9512C19.5111 20.9802 19.5821 20.995 19.6538 20.9947C19.7202 20.9974 19.7865 20.9866 19.8486 20.9629C19.9106 20.9392 19.9672 20.9031 20.0148 20.8568C20.0655 20.8096 20.1052 20.752 20.1313 20.6879C20.1573 20.6239 20.169 20.5549 20.1655 20.4858C20.165 20.4177 20.1508 20.3504 20.1237 20.2879C20.0966 20.2253 20.0572 20.1688 20.0079 20.1218Z" fill="white"/>
    <path d="M14.5897 16.7431C14.5566 16.7147 14.5204 16.6902 14.4818 16.67C14.4065 16.6227 14.3191 16.5982 14.2301 16.5997C14.1411 16.5982 14.0537 16.6227 13.9784 16.67C13.9398 16.6902 13.9036 16.7147 13.8705 16.7431C13.8213 16.7834 13.7816 16.8342 13.7543 16.8916C13.7271 16.9491 13.7129 17.0119 13.7129 17.0754V20.5132C13.7129 20.5809 13.728 20.6478 13.7569 20.7091C13.7858 20.7703 13.8279 20.8245 13.8802 20.8676C13.975 20.9511 14.0981 20.9955 14.2246 20.9917H14.2425C14.369 20.9955 14.4921 20.9511 14.5869 20.8676C14.6392 20.8245 14.6813 20.7703 14.7102 20.7091C14.7391 20.6478 14.7542 20.5809 14.7542 20.5132V17.0754C14.7534 17.0113 14.7381 16.9482 14.7097 16.8907C14.6812 16.8332 14.6402 16.7827 14.5897 16.7431Z" fill="white"/>
    <path d="M14.6172 15.2944C14.5731 15.2458 14.519 15.2071 14.4587 15.181C14.3984 15.1548 14.3331 15.1418 14.2674 15.1427C14.1328 15.1398 14.0023 15.1893 13.9037 15.2806C13.8542 15.3234 13.8142 15.3761 13.7864 15.4352C13.7585 15.4944 13.7433 15.5586 13.7419 15.624C13.7362 15.6946 13.7455 15.7657 13.7694 15.8325C13.7932 15.8993 13.831 15.9603 13.8801 16.0115C13.9854 16.1065 14.1226 16.1586 14.2646 16.1576C14.3299 16.1582 14.3946 16.1449 14.4544 16.1188C14.5142 16.0927 14.5678 16.0542 14.6117 16.0059C14.7065 15.9109 14.7598 15.7822 14.7598 15.6481C14.7598 15.514 14.7065 15.3853 14.6117 15.2902L14.6172 15.2944Z" fill="white"/>
    <path d="M10.0786 5.57812C8.56665 5.57812 7.19214 6.95036 7.19214 8.64272C7.19422 9.26527 7.3797 9.87163 7.72271 10.3773C8.4567 9.91601 9.25254 9.59004 10.0841 9.59004C10.9157 9.59004 11.7102 9.91601 12.4455 10.3773C12.7885 9.87163 12.974 9.26527 12.9761 8.64272C12.9706 6.95036 11.5947 5.57812 10.0786 5.57812Z" fill="white"/>
    <path d="M10.0772 0C6.36598 0 3.35718 8.31924 3.35718 12.2031C3.35718 15.2168 5.17016 11.9805 7.71576 10.3783C7.35657 9.85162 7.17076 9.21459 7.1869 8.56519C7.20304 7.91579 7.42025 7.28999 7.8051 6.78403C7.6824 7.09469 7.61932 7.42809 7.61954 7.76481C7.61954 8.45487 7.87847 9.11666 8.33936 9.6046C8.80026 10.0925 9.42537 10.3667 10.0772 10.3667C10.729 10.3667 11.3541 10.0925 11.815 9.6046C12.2759 9.11666 12.5348 8.45487 12.5348 7.76481C12.535 7.42809 12.4719 7.09469 12.3492 6.78403C12.7341 7.28999 12.9513 7.91579 12.9675 8.56519C12.9836 9.21459 12.7978 9.85162 12.4386 10.3783C14.9856 11.979 16.7972 15.2168 16.7972 12.2031C16.7972 8.32069 13.7884 0 10.0772 0Z" fill="white"/>
</svg>
