<svg width="32" height="40" viewBox="0 0 32 40" fill="none" xmlns="http://www.w3.org/2000/svg">
<path d="M20.1382 9.65517H27.0347L18.7588 0V8.27586C18.7588 9.10345 19.4485 9.65517 20.1382 9.65517Z" fill="#0C54A0"/>
<path d="M23.5863 23.4483C24.8277 23.4483 25.9312 23.7241 27.0345 24.1379V11.0345H20.138C18.6208 11.0345 17.3794 9.79314 17.3794 8.27586V0H3.58626C2.06898 0 0.827637 1.24134 0.827637 2.75862V34.4828C0.827637 36 2.06898 37.2414 3.58626 37.2414H16.0001C15.1725 35.8621 14.6207 34.2069 14.6207 32.4138C14.6208 27.4483 18.6208 23.4483 23.5863 23.4483Z" fill="#00A0E3"/>
<path d="M23.5862 24.8276C19.4483 24.8276 16 28.2759 16 32.4139C16 36.5519 19.4483 40.0001 23.5862 40.0001C27.7242 40.0001 31.1725 36.5518 31.1725 32.4138C31.1725 28.2758 27.7242 24.8276 23.5862 24.8276ZM22.8966 28.9656H24.2759V30.3449H22.8966V28.9656ZM25.6552 35.8621H24.2759H21.5173V34.4828H22.8966V33.1035H21.5173V31.7242H24.2759V34.4828H25.6552V35.8621Z" fill="#0C54A0"/>
</svg>
