<svg width="40" height="40" viewBox="0 0 40 40" fill="none" xmlns="http://www.w3.org/2000/svg">
<path d="M2.59131 36.7532C2.59131 38.41 3.93445 39.7532 5.59131 39.7532H34.4687C35.9909 39.7532 37.2313 38.5136 37.2313 36.9896V9.41602H2.59131V36.7532ZM16.6348 32.8525C17.106 33.3246 17.106 34.0903 16.6348 34.5628C16.3979 34.7989 16.0889 34.9158 15.7799 34.9158C15.4709 34.9158 15.161 34.7989 14.9241 34.562L12.4783 32.1136L10.0317 34.5611C9.79483 34.7971 9.48669 34.9158 9.1768 34.9158C8.86779 34.9158 8.5579 34.7971 8.32274 34.5611C7.84977 34.0899 7.84977 33.3242 8.32274 32.8516L10.7702 30.4042L8.32274 27.9558C7.84977 27.4828 7.84977 26.718 8.32274 26.2455C8.79483 25.7734 9.55966 25.7734 10.0322 26.2455L12.4788 28.6938L14.9245 26.2463C15.3983 25.7743 16.1623 25.7743 16.6357 26.2463C17.1069 26.7176 17.1069 27.4833 16.6357 27.9558L14.1882 30.4042L16.6348 32.8525ZM28.0814 35.0674H27.2366C26.5685 35.0674 26.0269 34.5268 26.0269 33.8587C26.0269 33.1905 26.5685 32.6499 27.2366 32.6499H28.0814C28.7495 32.6499 29.292 33.1905 29.292 33.8587C29.292 34.5268 28.7491 35.0674 28.0814 35.0674ZM23.7913 16.5149H31.5223C32.1904 16.5149 32.7328 17.0556 32.7328 17.7237C32.7328 18.3918 32.1904 18.9325 31.5223 18.9325H23.7913C23.1249 18.9325 22.5834 18.3918 22.5834 17.7237C22.5834 17.0556 23.1249 16.5149 23.7913 16.5149ZM29.292 26.9391C29.292 27.6072 28.7495 28.1488 28.0814 28.1488H27.2366C26.5685 28.1488 26.0269 27.6072 26.0269 26.9391C26.0269 26.2718 26.5685 25.7303 27.2366 25.7303H28.0814C28.7491 25.7303 29.292 26.2723 29.292 26.9391ZM23.7913 29.1945H31.5223C32.1904 29.1945 32.7328 29.7351 32.7328 30.4033C32.7328 31.0714 32.1904 31.6121 31.5223 31.6121H23.7913C23.1249 31.6121 22.5834 31.0714 22.5834 30.4033C22.5834 29.7351 23.1249 29.1945 23.7913 29.1945ZM8.6146 16.5149H11.2682V13.8604C11.2682 13.1923 11.8098 12.6516 12.477 12.6516C13.1452 12.6516 13.6858 13.1923 13.6858 13.8604V16.5149H16.3438C17.0102 16.5149 17.5526 17.0556 17.5526 17.7237C17.5526 18.3918 17.0102 18.9325 16.3438 18.9325H13.6858V21.5888C13.6858 22.2569 13.1452 22.7984 12.477 22.7984C11.8098 22.7984 11.2682 22.2569 11.2682 21.5888V18.9325H8.6146C7.94647 18.9325 7.40406 18.3918 7.40406 17.7237C7.40406 17.0556 7.94647 16.5149 8.6146 16.5149Z" fill="#00A0E3"/>
<path d="M34.6405 0H6C4.34315 0 3 1.34314 3 3V6.50154H37.6404V3C37.6404 1.34315 36.2973 0 34.6405 0Z" fill="#0C54A0"/>
</svg>
