<svg width="191" height="146" viewBox="0 0 191 146" fill="none" xmlns="http://www.w3.org/2000/svg">
<path d="M182.318 60.8565H140.732L102.619 3.838C101.825 2.65664 100.752 1.68866 99.4956 1.01937C98.239 0.35007 96.837 0 95.4132 0C93.9893 0 92.5873 0.35007 91.3307 1.01937C90.0741 1.68866 89.0014 2.65664 88.2073 3.838L50.0941 60.8565H8.68182C3.90682 60.8565 0 64.7619 0 69.5352C0 70.3162 0.0868179 71.0973 0.347272 71.8784L22.3991 152.329C24.3959 159.619 31.0809 165 39.0682 165H151.932C159.919 165 166.604 159.619 168.688 152.329L190.74 71.8784L191 69.5352C191 64.7619 187.093 60.8565 182.318 60.8565ZM95.4132 24.3195L119.809 60.8565H71.0173L95.4132 24.3195ZM95.5 130.286C85.95 130.286 78.1364 122.475 78.1364 112.928C78.1364 103.382 85.95 95.571 95.5 95.571C105.05 95.571 112.864 103.382 112.864 112.928C112.864 122.475 105.05 130.286 95.5 130.286Z" fill="currentColor"/>
</svg>
