<svg width="29" height="29" viewBox="0 0 29 29" fill="none" xmlns="http://www.w3.org/2000/svg">
<path fill-rule="evenodd" clip-rule="evenodd" d="M6.33333 3.16689C6.33333 1.41799 7.7511 0.00022612 9.5 0.00022612L25.3333 0H25.3336C27.0825 0.000124909 28.5001 1.41799 28.5 3.16689H28.4998L28.4984 22.1669C28.4984 25.6597 25.6563 28.5002 22.1651 28.5002H6.33333C2.84208 28.5002 0 25.6597 0 22.1669V19.0002C0 18.1258 0.708882 17.4169 1.58333 17.4169H6.33333V3.16689ZM3.16667 20.5833V22.1667C3.16667 23.9156 4.58443 25.3333 6.33333 25.3333V20.5833H3.16667ZM14.25 9.50011C13.3755 9.50011 12.6667 10.209 12.6667 11.0834C12.6667 11.9579 13.3755 12.6668 14.25 12.6668H20.5833C21.4578 12.6668 22.1667 11.9579 22.1667 11.0834C22.1667 10.209 21.4578 9.50011 20.5833 9.50011H14.25ZM14.25 15.8334C13.3755 15.8334 12.6667 16.5423 12.6667 17.4168C12.6667 18.2912 13.3755 19.0001 14.25 19.0001H20.5833C21.4578 19.0001 22.1667 18.2912 22.1667 17.4168C22.1667 16.5423 21.4578 15.8334 20.5833 15.8334H14.25Z" fill="#E3EEF4"/>
</svg>
