<svg width="26" height="30" viewBox="0 0 26 30" fill="none" xmlns="http://www.w3.org/2000/svg">
<path d="M23.2141 15.1625C23.3891 15.1625 23.5516 15.2375 23.6891 15.375L25.2891 16.975C25.5641 17.2375 25.5641 17.675 25.2891 17.9375L24.0391 19.1875L21.4766 16.625L22.7266 15.375C22.8641 15.2375 23.0391 15.1625 23.2141 15.1625ZM20.7516 17.35L23.3141 19.9125L15.7391 27.5H13.1641V24.925L20.7516 17.35V17.35ZM20.6641 3.75C22.0391 3.75 23.1641 4.875 23.1641 6.25V11.25L10.6641 23.75V26.25H3.16406C1.78906 26.25 0.664062 25.125 0.664062 23.75V6.25C0.664062 4.875 1.78906 3.75 3.16406 3.75H8.38906C8.91406 2.3 10.2891 1.25 11.9141 1.25C13.5391 1.25 14.9141 2.3 15.4391 3.75H20.6641ZM11.9141 3.75C11.2266 3.75 10.6641 4.3125 10.6641 5C10.6641 5.6875 11.2266 6.25 11.9141 6.25C12.6016 6.25 13.1641 5.6875 13.1641 5C13.1641 4.3125 12.6016 3.75 11.9141 3.75Z" fill="#E3EEF4"/>
</svg>
