<svg width="21" height="21" viewBox="0 0 21 21" fill="none" xmlns="http://www.w3.org/2000/svg">
<path d="M13.125 1.96875C13.125 1.44661 13.3324 0.945846 13.7016 0.576634C14.0708 0.207421 14.5716 0 15.0938 0H18.375C19.0712 0 19.7389 0.276562 20.2312 0.768845C20.7234 1.26113 21 1.92881 21 2.625V18.375C21 19.0712 20.7234 19.7389 20.2312 20.2312C19.7389 20.7234 19.0712 21 18.375 21H2.625C1.92881 21 1.26113 20.7234 0.768845 20.2312C0.276562 19.7389 0 19.0712 0 18.375V2.625C0 1.92881 0.276562 1.26113 0.768845 0.768845C1.26113 0.276562 1.92881 0 2.625 0L8.66291 0C8.25079 0.548625 8.00666 1.22981 8.00666 1.96875L7.875 8.72287H6.37088C6.30986 8.66186 6.23742 8.61346 6.1577 8.58044C6.07798 8.54742 5.99254 8.53042 5.90625 8.53042C5.81996 8.53042 5.73452 8.54742 5.6548 8.58044C5.57508 8.61346 5.50264 8.66186 5.44162 8.72287C5.38061 8.78389 5.33221 8.85633 5.29919 8.93605C5.26617 9.01577 5.24917 9.10121 5.24917 9.1875C5.24917 9.27379 5.26617 9.35923 5.29919 9.43895C5.33221 9.51867 5.38061 9.59111 5.44162 9.65213L10.0354 14.2459C10.0963 14.307 10.1688 14.3555 10.2485 14.3886C10.3282 14.4216 10.4137 14.4387 10.5 14.4387C10.5863 14.4387 10.6718 14.4216 10.7515 14.3886C10.8312 14.3555 10.9037 14.307 10.9646 14.2459L15.5584 9.65213C15.6816 9.5289 15.7508 9.36177 15.7508 9.1875C15.7508 9.01323 15.6816 8.8461 15.5584 8.72287C15.4351 8.59965 15.268 8.53042 15.0938 8.53042C14.9195 8.53042 14.7524 8.59965 14.6291 8.72287H13.125V1.96875Z" fill="#C7DCE9"/>
</svg>
