<svg width="34" height="34" viewBox="0 0 34 34" fill="none" xmlns="http://www.w3.org/2000/svg">
<g clip-path="url(#clip0_346_14295)">
<path d="M19.4976 0H8.25C7.12283 0 6.04183 0.447767 5.2448 1.2448C4.44777 2.04183 4 3.12283 4 4.25V29.75C4 30.8772 4.44777 31.9582 5.2448 32.7552C6.04183 33.5522 7.12283 34 8.25 34H25.25C26.3772 34 27.4582 33.5522 28.2552 32.7552C29.0522 31.9582 29.5 30.8772 29.5 29.75V10.0024C29.4999 9.43884 29.2759 8.89842 28.8774 8.5L21 0.622625C20.6016 0.224083 20.0612 0.000120354 19.4976 0ZM19.9375 7.4375V3.1875L26.3125 9.5625H22.0625C21.4989 9.5625 20.9584 9.33862 20.5599 8.9401C20.1614 8.54159 19.9375 8.00109 19.9375 7.4375Z" fill="#E3EEF4"/>
</g>
<path d="M8.59868 17.7H10.6327C11.4727 17.7 12.1447 17.919 12.6487 18.357C13.1527 18.789 13.4047 19.359 13.4047 20.067C13.4047 20.781 13.1527 21.354 12.6487 21.786C12.1447 22.218 11.4727 22.434 10.6327 22.434H9.57068V24H8.59868V17.7ZM9.57068 21.525H10.6957C11.2117 21.525 11.6377 21.405 11.9737 21.165C12.3157 20.919 12.4867 20.553 12.4867 20.067C12.4867 19.593 12.3157 19.233 11.9737 18.987C11.6317 18.741 11.2057 18.618 10.6957 18.618H9.57068V21.525ZM14.962 17.7H17.05C17.95 17.7 18.709 17.997 19.327 18.591C19.945 19.185 20.254 19.938 20.254 20.85C20.254 21.762 19.945 22.515 19.327 23.109C18.709 23.703 17.95 24 17.05 24H14.962V17.7ZM15.934 23.082H17.05C17.692 23.082 18.223 22.884 18.643 22.488C19.069 22.086 19.282 21.54 19.282 20.85C19.282 20.166 19.069 19.623 18.643 19.221C18.223 18.819 17.692 18.618 17.05 18.618H15.934V23.082ZM22.7718 20.364H25.6788V21.282H22.7718V24H21.7998V17.7H25.8948V18.618H22.7718V20.364Z" fill="#00A0E3"/>
<defs>
<clipPath id="clip0_346_14295">
<rect width="34" height="34" fill="white"/>
</clipPath>
</defs>
</svg>
