<svg width="34" height="34" viewBox="0 0 34 34" fill="none" xmlns="http://www.w3.org/2000/svg">
<g clip-path="url(#clip0_346_14288)">
<path d="M19.4976 0H8.25C7.12283 0 6.04183 0.447767 5.2448 1.2448C4.44777 2.04183 4 3.12283 4 4.25V29.75C4 30.8772 4.44777 31.9582 5.2448 32.7552C6.04183 33.5522 7.12283 34 8.25 34H25.25C26.3772 34 27.4582 33.5522 28.2552 32.7552C29.0522 31.9582 29.5 30.8772 29.5 29.75V10.0024C29.4999 9.43884 29.2759 8.89842 28.8774 8.5L21 0.622625C20.6016 0.224083 20.0612 0.000120354 19.4976 0ZM19.9375 7.4375V3.1875L26.3125 9.5625H22.0625C21.4989 9.5625 20.9584 9.33862 20.5599 8.9401C20.1614 8.54159 19.9375 8.00109 19.9375 7.4375Z" fill="#E3EEF4"/>
<path d="M5.981 19.7H8.069C8.969 19.7 9.728 19.997 10.346 20.591C10.964 21.185 11.273 21.938 11.273 22.85C11.273 23.762 10.964 24.515 10.346 25.109C9.728 25.703 8.969 26 8.069 26H5.981V19.7ZM6.953 25.082H8.069C8.711 25.082 9.242 24.884 9.662 24.488C10.088 24.086 10.301 23.54 10.301 22.85C10.301 22.166 10.088 21.623 9.662 21.221C9.242 20.819 8.711 20.618 8.069 20.618H6.953V25.082ZM18.985 26H18.427L16.663 21.671L14.899 26H14.332L11.812 19.7H12.883L14.602 24.2L16.375 19.7H16.942L18.715 24.2L20.434 19.7H21.505L18.985 26ZM25.4263 19.646C26.3623 19.646 27.1543 19.994 27.8023 20.69L27.1723 21.275C26.7043 20.795 26.1223 20.555 25.4263 20.555C24.7963 20.555 24.2653 20.774 23.8333 21.212C23.4073 21.644 23.1943 22.193 23.1943 22.859C23.1943 23.519 23.4073 24.068 23.8333 24.506C24.2653 24.938 24.7963 25.154 25.4263 25.154C25.9663 25.154 26.4343 24.989 26.8303 24.659V23.354H25.3903V22.607H27.8023V25.028C27.1543 25.724 26.3623 26.072 25.4263 26.072C24.5383 26.072 23.7823 25.76 23.1583 25.136C22.5343 24.506 22.2223 23.747 22.2223 22.859C22.2223 21.971 22.5343 21.215 23.1583 20.591C23.7823 19.961 24.5383 19.646 25.4263 19.646Z" fill="#00A0E3"/>
</g>
<defs>
<clipPath id="clip0_346_14288">
<rect width="34" height="34" fill="white"/>
</clipPath>
</defs>
</svg>
