<svg width="26" height="34" viewBox="0 0 26 34" fill="none" xmlns="http://www.w3.org/2000/svg">
<path d="M4.5 0H15.7476C16.3112 0.000120354 16.8516 0.224083 17.25 0.622625L25.1274 8.5C25.5259 8.89842 25.7499 9.43884 25.75 10.0024V21.8726L19.9488 16.0714C19.7304 15.8536 19.4672 15.686 19.1775 15.5801C18.8878 15.4742 18.5786 15.4327 18.2713 15.4584C17.9639 15.4841 17.6658 15.5763 17.3978 15.7288C17.1297 15.8813 16.898 16.0902 16.7188 16.3412L12.7046 21.9597L8.9455 19.703C8.53913 19.4589 8.06279 19.3576 7.59226 19.4154C7.12172 19.4731 6.68401 19.6866 6.34875 20.0217L0.25 26.1205V4.25C0.25 3.12283 0.697766 2.04183 1.4948 1.2448C2.29183 0.447767 3.37283 0 4.5 0V0ZM16.1875 3.1875V7.4375C16.1875 8.00109 16.4114 8.54159 16.8099 8.9401C17.2084 9.33862 17.7489 9.5625 18.3125 9.5625H22.5625L16.1875 3.1875ZM13.0042 11.6875C13.0042 10.8421 12.6684 10.0314 12.0707 9.4336C11.4729 8.83582 10.6621 8.5 9.81675 8.5C8.97137 8.5 8.16062 8.83582 7.56285 9.4336C6.96508 10.0314 6.62925 10.8421 6.62925 11.6875C6.62925 12.5329 6.96508 13.3436 7.56285 13.9414C8.16062 14.5392 8.97137 14.875 9.81675 14.875C10.6621 14.875 11.4729 14.5392 12.0707 13.9414C12.6684 13.3436 13.0042 12.5329 13.0042 11.6875Z" fill="#E3EEF4"/>
<path d="M18.4485 17.5742L25.75 24.88V29.7505C25.75 30.8776 25.3022 31.9586 24.5052 32.7557C23.7082 33.5527 22.6272 34.0005 21.5 34.0005H4.5C3.37283 34.0005 2.29183 33.5527 1.4948 32.7557C0.697766 31.9586 0.25 30.8776 0.25 29.7505V29.1278L7.85325 21.5267L13.2932 24.7907L18.4485 17.5763V17.5742Z" fill="#E3EEF4"/>
</svg>
