<svg width="26" height="34" viewBox="0 0 26 34" fill="none" xmlns="http://www.w3.org/2000/svg">
<path d="M15.4976 0H4.25C3.12283 0 2.04183 0.447767 1.2448 1.2448C0.447766 2.04183 0 3.12283 0 4.25V29.75C0 30.8772 0.447766 31.9582 1.2448 32.7552C2.04183 33.5522 3.12283 34 4.25 34H21.25C22.3772 34 23.4582 33.5522 24.2552 32.7552C25.0522 31.9582 25.5 30.8772 25.5 29.75V10.0024C25.4999 9.43884 25.2759 8.89842 24.8774 8.5L17 0.622625C16.6016 0.224083 16.0612 0.000120354 15.4976 0V0ZM15.9375 7.4375V3.1875L22.3125 9.5625H18.0625C17.4989 9.5625 16.9584 9.33862 16.5599 8.9401C16.1614 8.54159 15.9375 8.00109 15.9375 7.4375ZM7.40563 14.6179L9.60712 23.4239L11.7257 15.657C11.7876 15.4328 11.9213 15.2351 12.1063 15.0942C12.2913 14.9533 12.5174 14.877 12.75 14.877C12.9826 14.877 13.2087 14.9533 13.3937 15.0942C13.5787 15.2351 13.7124 15.4328 13.7743 15.657L15.8929 23.4239L18.0944 14.6179C18.1678 14.3502 18.343 14.1219 18.5825 13.9818C18.8221 13.8416 19.107 13.8008 19.3762 13.868C19.6455 13.9351 19.8778 14.105 20.0235 14.3413C20.1691 14.5775 20.2166 14.8614 20.1556 15.1321L16.9681 27.8821C16.9107 28.1097 16.7796 28.3118 16.5952 28.457C16.4108 28.6022 16.1836 28.6823 15.9489 28.6847C15.7142 28.6871 15.4853 28.6118 15.298 28.4705C15.1106 28.3291 14.9753 28.1297 14.9132 27.9034L12.75 19.9793L10.5868 27.9055C10.5247 28.1318 10.3894 28.3312 10.202 28.4726C10.0147 28.6139 9.7858 28.6893 9.55112 28.6868C9.31645 28.6844 9.08917 28.6044 8.90479 28.4592C8.7204 28.314 8.58927 28.1118 8.53187 27.8842L5.34437 15.1343C5.30693 14.9977 5.29715 14.855 5.31563 14.7146C5.3341 14.5742 5.38045 14.439 5.45195 14.3167C5.52345 14.1945 5.61866 14.0878 5.73199 14.0029C5.84531 13.918 5.97446 13.8566 6.11185 13.8224C6.24924 13.7881 6.39209 13.7816 6.53202 13.8033C6.67194 13.8251 6.80611 13.8745 6.92665 13.9488C7.04718 14.0231 7.15164 14.1208 7.2339 14.2361C7.31615 14.3513 7.37454 14.4819 7.40563 14.62V14.6179Z" fill="#E3EEF4"/>
</svg>
