<svg width="101" height="139" viewBox="0 0 101 139" fill="none" xmlns="http://www.w3.org/2000/svg">
<path d="M57.5726 0.347656C42.522 0.365456 28.0929 6.367 17.4506 17.0358C6.80821 27.7046 0.821527 42.1694 0.803771 57.2574C0.785745 69.5873 4.80329 81.5826 12.2401 91.4032C12.2401 91.4032 13.7883 93.4468 14.0412 93.7417L57.5726 145.209L101.125 93.7158C101.352 93.4416 102.905 91.4032 102.905 91.4032L102.91 91.3877C110.343 81.5714 114.359 69.5816 114.341 57.2574C114.324 42.1694 108.337 27.7046 97.6946 17.0358C87.0522 6.367 72.6231 0.365456 57.5726 0.347656ZM57.5726 77.9518C53.4897 77.9518 49.4986 76.7381 46.1038 74.4642C42.7091 72.1902 40.0632 68.9582 38.5007 65.1768C36.9383 61.3954 36.5295 57.2344 37.326 53.2201C38.1226 49.2058 40.0886 45.5184 42.9756 42.6242C45.8626 39.73 49.5409 37.7591 53.5453 36.9606C57.5497 36.1621 61.7003 36.5719 65.4724 38.1382C69.2444 39.7045 72.4685 42.357 74.7368 45.7602C77.0051 49.1633 78.2158 53.1644 78.2158 57.2574C78.2089 62.7438 76.0319 68.0035 72.162 71.883C68.2921 75.7625 63.0454 77.945 57.5726 77.9518Z" fill="#00A0E3"/>
</svg>
