<svg width="31" height="30" viewBox="0 0 31 30" fill="none" xmlns="http://www.w3.org/2000/svg">
<path fill-rule="evenodd" clip-rule="evenodd" d="M25 7C25 5.625 23.875 4.5 22.5 4.5H17.275C16.75 3.05 15.375 2 13.75 2C12.125 2 10.75 3.05 10.225 4.5H5C3.625 4.5 2.5 5.625 2.5 7V24.5C2.5 25.875 3.625 27 5 27H14.75C14.75 27 14.9524 27.0578 15.3177 27.0948C13.5936 25.6274 12.5 23.4414 12.5 21C12.5 16.5817 16.0817 13 20.5 13C22.2194 13 23.8121 13.5424 25.1163 14.4655C25.0515 14.0161 25 13.75 25 13.75V7ZM12.5 5.75C12.5 5.0625 13.0625 4.5 13.75 4.5C14.4375 4.5 15 5.0625 15 5.75C15 6.4375 14.4375 7 13.75 7C13.0625 7 12.5 6.4375 12.5 5.75Z" fill="#E3EEF4"/>
<path d="M21.7031 17.1719H19.1875V21.0262H21.7206C22.2571 21.0501 22.7814 20.8613 23.1795 20.5009C23.5776 20.1404 23.8174 19.6375 23.8469 19.1012C23.8335 18.8336 23.7673 18.5712 23.6521 18.3292C23.537 18.0872 23.3752 17.8703 23.176 17.691C22.9768 17.5117 22.7441 17.3736 22.4914 17.2845C22.2386 17.1954 21.9707 17.1571 21.7031 17.1719Z" fill="#E3EEF4"/>
<path d="M20.5 14C19.1155 14 17.7622 14.4105 16.611 15.1797C15.4599 15.9489 14.5627 17.0421 14.0328 18.3212C13.503 19.6003 13.3644 21.0078 13.6345 22.3656C13.9046 23.7235 14.5713 24.9708 15.5503 25.9497C16.5292 26.9287 17.7765 27.5954 19.1344 27.8655C20.4922 28.1356 21.8997 27.997 23.1788 27.4672C24.4579 26.9373 25.5511 26.0401 26.3203 24.889C27.0895 23.7378 27.5 22.3845 27.5 21C27.5 19.1435 26.7625 17.363 25.4497 16.0503C24.137 14.7375 22.3565 14 20.5 14ZM21.7031 22.12H19.1875V22.75H22.8144C22.9304 22.75 23.0417 22.7961 23.1237 22.8781C23.2058 22.9602 23.2519 23.0715 23.2519 23.1875C23.2519 23.3035 23.2058 23.4148 23.1237 23.4969C23.0417 23.5789 22.9304 23.625 22.8144 23.625H19.1875V25.8125C19.1875 25.9575 19.1299 26.0966 19.0273 26.1992C18.9248 26.3018 18.7857 26.3594 18.6406 26.3594C18.4956 26.3594 18.3565 26.3018 18.2539 26.1992C18.1514 26.0966 18.0938 25.9575 18.0938 25.8125V23.625H17.5469C17.4308 23.625 17.3196 23.5789 17.2375 23.4969C17.1555 23.4148 17.1094 23.3035 17.1094 23.1875C17.1094 23.0715 17.1555 22.9602 17.2375 22.8781C17.3196 22.7961 17.4308 22.75 17.5469 22.75H18.0763V22.12H17.5469C17.4018 22.12 17.2627 22.0624 17.1602 21.9598C17.0576 21.8573 17 21.7182 17 21.5731C17 21.4281 17.0576 21.289 17.1602 21.1864C17.2627 21.0839 17.4018 21.0262 17.5469 21.0262H18.0763V16.625C18.0763 16.48 18.1339 16.3409 18.2364 16.2383C18.339 16.1357 18.4781 16.0781 18.6231 16.0781H21.6856C22.5127 16.0522 23.3163 16.3555 23.9201 16.9214C24.5238 17.4874 24.8782 18.2698 24.9056 19.0969C24.8782 19.9212 24.5263 20.7013 23.9265 21.2675C23.3268 21.8337 22.5277 22.1401 21.7031 22.12Z" fill="#E3EEF4"/>
</svg>
