<svg width="65" height="70" viewBox="0 0 65 70" fill="none" xmlns="http://www.w3.org/2000/svg">
<path d="M61.3894 30.2291L6.89941 0.491257C6.16432 0.119516 5.35571 -0.0456412 4.5472 0.0108195C3.73869 0.0672801 2.95595 0.343566 2.27025 0.814526C1.58455 1.28549 1.01765 1.93616 0.621166 2.70732C0.224683 3.47848 0.0112049 4.34564 0.000164764 5.22985V64.68C-0.00670016 65.5876 0.201064 66.4818 0.603377 67.2762C1.00569 68.0706 1.58895 68.7383 2.29677 69.2147C3.00459 69.6911 3.81305 69.9602 4.64399 69.9959C5.47493 70.0316 6.30027 69.8328 7.04022 69.4185L61.3894 39.6807C62.1945 39.2396 62.8713 38.5628 63.3443 37.726C63.8173 36.8892 64.0678 35.9253 64.0678 34.9421C64.0678 33.9589 63.8173 32.995 63.3443 32.1582C62.8713 31.3214 62.1945 30.6446 61.3894 30.2035V30.2291Z" fill="#F3F8FB"/>
</svg>
