<svg width="25" height="25" viewBox="0 0 25 25" fill="none" xmlns="http://www.w3.org/2000/svg">
<path d="M20.9587 6.45573H19.7503V0.414062H5.25033V6.45573H4.04199C3.08058 6.45573 2.15855 6.83765 1.47873 7.51747C0.798911 8.19729 0.416992 9.11932 0.416992 10.0807V18.5391C0.416992 19.18 0.671604 19.7947 1.12482 20.2479C1.57803 20.7011 2.19272 20.9557 2.83366 20.9557H5.25033V24.5807H19.7503V20.9557H22.167C22.8079 20.9557 23.4226 20.7011 23.8758 20.2479C24.329 19.7947 24.5837 19.18 24.5837 18.5391V10.0807C24.5837 9.11932 24.2017 8.19729 23.5219 7.51747C22.8421 6.83765 21.9201 6.45573 20.9587 6.45573ZM7.66699 2.83073H17.3337V6.45573H7.66699V2.83073ZM7.66699 22.1641V17.3307H17.3337V22.1641H7.66699ZM20.9587 12.4974H16.1253V10.0807H20.9587V12.4974Z" fill="#E3EEF4"/>
</svg>
