<svg width="62" height="51" viewBox="0 0 62 51" fill="none" xmlns="http://www.w3.org/2000/svg">
<g clip-path="url(#clip0_228_3058)">
<path d="M48.3771 13.8893C49.4341 10.8764 45.9128 8.33956 43.3896 10.2963L42.7774 10.7719C42.3999 11.065 41.9615 11.2699 41.4945 11.3715C41.0275 11.4732 40.5437 11.469 40.0785 11.3593C39.6133 11.2496 39.1786 11.0372 38.8061 10.7376C38.4337 10.4381 38.1331 10.0589 37.9263 9.62806L37.5934 8.92994C36.2088 6.05057 31.9247 6.74679 31.5261 9.91596L31.4284 10.684C31.1715 12.7097 29.1152 13.981 27.1891 13.3052L26.4578 13.0479C23.4449 11.9909 20.908 15.5122 22.8648 18.0354L23.3404 18.6476C23.6335 19.0251 23.8384 19.4635 23.94 19.9305C24.0417 20.3975 24.0375 20.8813 23.9278 21.3465C23.8181 21.8117 23.6057 22.2464 23.3061 22.6189C23.0065 22.9913 22.6274 23.2919 22.1965 23.4987L21.4984 23.8316C18.619 25.2162 19.3153 29.5003 22.4844 29.8989L23.2525 29.9966C23.7267 30.0563 24.1815 30.2215 24.5836 30.4798C24.9857 30.7382 25.3249 31.0833 25.5762 31.4898C25.8276 31.8964 25.9847 32.354 26.0362 32.8291C26.0877 33.3043 26.0321 33.785 25.8737 34.2359L25.6164 34.9672C24.5593 37.9801 28.0807 40.517 30.6038 38.5602L31.2161 38.0846C31.5936 37.7915 32.0319 37.5866 32.4989 37.485C32.966 37.3833 33.4498 37.3875 33.915 37.4972C34.3802 37.6069 34.8149 37.8193 35.1873 38.1189C35.5597 38.4185 35.8604 38.7976 36.0672 39.2285L36.4 39.9266C37.7847 42.806 42.0688 42.1097 42.4674 38.9406L42.5651 38.1725C42.6248 37.6983 42.7899 37.2435 43.0483 36.8414C43.3067 36.4393 43.6518 36.1001 44.0583 35.8488C44.4648 35.5974 44.9224 35.4403 45.3976 35.3888C45.8728 35.3373 46.3534 35.3929 46.8043 35.5513L47.5357 35.8086C50.5486 36.8657 53.0854 33.3443 51.1287 30.8212L50.6531 30.2089C50.36 29.8314 50.1551 29.3931 50.0535 28.9261C49.9518 28.459 49.956 27.9752 50.0657 27.51C50.1754 27.0448 50.3878 26.6101 50.6874 26.2377C50.9869 25.8653 51.3661 25.5646 51.7969 25.3578L52.4951 25.025C55.3744 23.6403 54.6782 19.3562 51.509 18.9576L50.741 18.8599C50.2668 18.8002 49.8119 18.6351 49.4098 18.3767C49.0078 18.1183 48.6686 17.7732 48.4173 17.3667C48.1659 16.9602 48.0087 16.5026 47.9573 16.0274C47.9058 15.5522 47.9613 15.0716 48.1198 14.6206L48.3771 13.8893ZM33.2503 29.6287C31.8711 28.6351 30.943 27.1342 30.6704 25.4564C30.3977 23.7785 30.8027 22.0611 31.7963 20.6818C32.7899 19.3026 34.2908 18.3746 35.9686 18.1019C37.6465 17.8292 39.3639 18.2342 40.7432 19.2279C42.1219 20.2211 43.0497 21.7214 43.3222 23.3987C43.5948 25.076 43.1899 26.7929 42.1966 28.1716C41.2034 29.5504 39.7031 30.4781 38.0258 30.7507C36.3485 31.0233 34.6316 30.6184 33.2529 29.6251L33.2503 29.6287Z" fill="#0C54A0"/>
</g>
<g clip-path="url(#clip1_228_3058)">
<path d="M19.107 29.2577C19.3371 27.3558 16.9461 26.3243 15.7205 27.7968L15.4233 28.1545C15.2399 28.375 15.0095 28.5517 14.749 28.6716C14.4885 28.7915 14.2045 28.8515 13.9178 28.8474C13.631 28.8432 13.3489 28.7749 13.092 28.6475C12.835 28.52 12.6099 28.3367 12.4331 28.111L12.1479 27.7449C10.9646 26.2367 8.54435 27.1981 8.72021 29.1065L8.76218 29.5691C8.87334 30.7892 7.83273 31.7997 6.61688 31.6526L6.15515 31.5963C4.25324 31.3661 3.22172 33.7571 4.69418 34.9827L5.05194 35.28C5.27244 35.4633 5.44912 35.6937 5.569 35.9542C5.68889 36.2147 5.74894 36.4988 5.74477 36.7855C5.74059 37.0722 5.67229 37.3544 5.54487 37.6113C5.41745 37.8682 5.23414 38.0933 5.00839 38.2702L4.64234 38.5554C3.13411 39.7387 4.09547 42.1589 6.00387 41.983L6.46653 41.9411C6.75209 41.9148 7.03991 41.9528 7.30888 42.0523C7.57785 42.1517 7.82115 42.3101 8.02094 42.5158C8.22073 42.7215 8.37194 42.9694 8.46348 43.2411C8.55502 43.5129 8.58457 43.8017 8.54997 44.0864L8.49371 44.5481C8.26354 46.45 10.6545 47.4815 11.8801 46.0091L12.1774 45.6513C12.3608 45.4308 12.5911 45.2541 12.8516 45.1343C13.1121 45.0144 13.3962 44.9543 13.6829 44.9585C13.9696 44.9627 14.2518 45.031 14.5087 45.1584C14.7656 45.2858 14.9907 45.4691 15.1676 45.6949L15.4528 46.0609C16.6361 47.5692 19.0563 46.6078 18.8805 44.6994L18.8385 44.2367C18.8122 43.9512 18.8502 43.6633 18.9497 43.3944C19.0491 43.1254 19.2075 42.8821 19.4132 42.6823C19.6189 42.4825 19.8668 42.3313 20.1385 42.2398C20.4103 42.1482 20.6991 42.1187 20.9838 42.1533L21.4455 42.2095C23.3474 42.4397 24.3789 40.0487 22.9065 38.8231L22.5487 38.5258C22.3282 38.3425 22.1515 38.1121 22.0317 37.8516C21.9118 37.5911 21.8517 37.3071 21.8559 37.0204C21.8601 36.7336 21.9284 36.4514 22.0558 36.1945C22.1832 35.9376 22.3665 35.7125 22.5923 35.5357L22.9583 35.2505C24.4666 34.0672 23.5052 31.6469 21.5968 31.8228L21.1341 31.8648C20.8486 31.891 20.5608 31.853 20.2918 31.7536C20.0228 31.6541 19.7795 31.4958 19.5797 31.29C19.3799 31.0843 19.2287 30.8365 19.1372 30.5647C19.0456 30.293 19.0161 30.0041 19.0507 29.7195L19.107 29.2577ZM12.277 40.434C11.3405 40.0299 10.6029 39.2705 10.2263 38.3226C9.84983 37.3747 9.86528 36.3161 10.2693 35.3796C10.6733 34.4431 11.4328 33.7054 12.3807 33.3289C13.3286 32.9524 14.3872 32.9679 15.3237 33.3719C16.2599 33.7758 16.9972 34.535 17.3736 35.4826C17.75 36.4301 17.7346 37.4884 17.3307 38.4246C16.9268 39.3607 16.1676 40.0981 15.22 40.4745C14.2725 40.8509 13.2142 40.8354 12.278 40.4316L12.277 40.434Z" fill="#00A0E3"/>
</g>
<defs>
<clipPath id="clip0_228_3058">
<rect width="35" height="35" fill="white" transform="translate(33.0269) rotate(35.7695)"/>
</clipPath>
<clipPath id="clip1_228_3058">
<rect width="21" height="21" fill="white" transform="translate(8.3186 23.1025) rotate(23.3362)"/>
</clipPath>
</defs>
</svg>
