<svg width="227" height="227" viewBox="0 0 227 227" fill="none" xmlns="http://www.w3.org/2000/svg">
<path d="M218.443 102.876L218.438 102.872C214.201 98.6191 209.238 96.4932 203.465 96.4932C197.681 96.4932 192.844 98.5221 188.61 102.744L218.443 102.876ZM218.443 102.876C222.668 107.092 224.685 111.937 224.685 117.726C224.685 123.511 222.671 128.331 218.441 132.577C214.219 136.789 209.263 138.826 203.465 138.826C197.657 138.826 192.675 136.809 188.496 132.585C184.363 128.401 182.368 123.528 182.368 117.726C182.368 111.924 184.394 106.951 188.61 102.744L218.443 102.876Z" stroke="#393185" stroke-width="4"/>
<path d="M161.883 169.688L161.888 169.684C165.572 165.97 169.994 164.177 175.415 164.177C180.682 164.177 184.964 165.976 188.704 169.694L188.711 169.7C192.521 173.454 194.415 177.775 194.415 183.044C194.415 188.355 192.538 192.813 188.696 196.695C184.998 200.397 180.692 202.177 175.415 202.177C169.985 202.177 165.539 200.404 161.897 196.706C158.168 192.878 156.415 188.4 156.415 183.044C156.415 177.729 158.189 173.388 161.883 169.688Z" stroke="#0C54A0" stroke-width="4"/>
<path d="M167.87 175.895L167.87 175.895L167.877 175.888C169.812 173.938 172.092 173 175 173C177.787 173 179.993 173.923 181.985 175.903L181.985 175.903L181.994 175.912C184.035 177.923 185 180.152 185 182.918C185 185.722 184.035 188.041 181.972 190.126C180.017 192.083 177.801 193 175 193C172.077 193 169.79 192.069 167.89 190.142C165.916 188.114 165 185.789 165 182.918C165 180.085 165.92 177.848 167.87 175.895Z" fill="#393185" stroke="#393185" stroke-width="6"/>
<path d="M103.582 201.604L103.582 201.604L103.589 201.598C105.329 199.843 107.374 199 110 199C112.51 199 114.489 199.828 116.285 201.613L116.285 201.613L116.294 201.622C118.136 203.437 119 205.437 119 207.924C119 210.45 118.135 212.532 116.272 214.415C114.511 216.177 112.525 217 110 217C107.36 217 105.309 216.163 103.602 214.431C101.824 212.604 101 210.517 101 207.924C101 205.369 101.826 203.363 103.582 201.604Z" fill="#0C54A0" stroke="#0C54A0" stroke-width="6"/>
<path d="M39.1494 176.169L39.1495 176.169L39.1562 176.162C40.6056 174.701 42.298 174 44.5 174C46.5954 174 48.2322 174.684 49.7349 176.177L49.7349 176.177L49.744 176.186C51.2884 177.708 52 179.363 52 181.434C52 183.541 51.285 185.269 49.7222 186.849C48.252 188.319 46.6102 189 44.5 189C42.2834 189 40.5875 188.303 39.1697 186.865C37.6849 185.339 37 183.608 37 181.434C37 179.295 37.6846 177.636 39.1494 176.169Z" fill="#0C54A0" stroke="#0C54A0" stroke-width="6"/>
<path d="M8.44585 111.465L8.44811 111.463C10.0961 109.802 12.0719 109 14.5 109C16.8571 109 18.77 109.804 20.4447 111.468L20.4447 111.468L20.4478 111.471C22.1544 113.153 23 115.083 23 117.44C23 119.817 22.1616 121.809 20.4404 123.548C18.7855 125.205 16.862 126 14.5 126C12.067 126 10.081 125.207 8.4526 123.554C6.78391 121.84 6 119.839 6 117.44C6 115.06 6.79284 113.121 8.44585 111.465Z" fill="#0C54A0" stroke="#0C54A0" stroke-width="2"/>
<path d="M41.9965 51.0072L41.9965 51.0072L42.0033 51.0003C42.6762 50.322 43.4273 50 44.5 50C45.4897 50 46.2149 50.2998 46.935 51.0154L46.935 51.0155L46.9442 51.0245C47.694 51.7633 48 52.4991 48 53.459C48 54.4498 47.685 55.2334 46.9224 56.0054C46.2289 56.6981 45.5044 57 44.5 57C43.4129 57 42.6639 56.6766 42.0168 56.0215C41.3146 55.2986 41 54.5166 41 53.459C41 52.4313 41.3081 51.6967 41.9965 51.0072Z" fill="#00A0E3" stroke="#00A0E3" stroke-width="6"/>
<path d="M194.62 69.8899C190.11 74.3867 184.78 76.6017 178.631 76.6017C172.35 76.6017 167.022 74.382 162.517 69.8903C158.014 65.3715 155.8 60.0437 155.8 53.7764C155.8 47.3685 158.017 42.0425 162.518 37.5295L194.62 69.8899ZM194.62 69.8899C199.125 65.3721 201.337 60.0444 201.337 53.7764C201.337 47.3681 199.117 42.0415 194.617 37.5277C190.249 33.1557 184.927 30.9512 178.631 30.9512C172.202 30.9512 166.882 33.1609 162.518 37.529L194.62 69.8899Z" stroke="#393185" stroke-width="5"/>
<path d="M97.6193 195.761L97.6218 195.759C101.025 192.291 105.137 190.618 109.961 190.618C114.913 190.618 118.997 192.321 122.308 195.635C125.746 199.082 127.457 203.281 127.457 208.245C127.457 213.055 125.732 217.095 122.319 220.447L122.318 220.448C118.961 223.753 114.899 225.5 109.961 225.5C105.137 225.5 101.017 223.824 97.6062 220.45L97.6062 220.45L97.6002 220.444C94.2728 217.19 92.5889 213.079 92.5889 208.245C92.5889 203.277 94.2719 199.155 97.6193 195.761Z" stroke="#0C54A0" stroke-width="3"/>
<path d="M92.7117 10.0689C97.4755 5.31777 103.167 3 109.961 3C116.755 3 122.446 5.31784 127.21 10.0691C132.01 14.8796 134.402 20.4571 134.402 27.2061C134.402 33.9833 131.989 39.7911 127.21 44.5814C122.446 49.3326 116.755 51.6504 109.961 51.6504C103.167 51.6504 97.4783 49.333 92.7115 44.5813C87.9566 39.8163 85.6433 34.0195 85.6433 27.2061C85.6433 20.4211 87.9374 14.8539 92.7117 10.0689Z" stroke="#393185" stroke-width="6"/>
<path d="M100.767 17.773C103.313 15.2295 106.319 14 109.964 14C113.608 14 116.614 15.2295 119.16 17.773C121.741 20.3652 123 23.3191 123 26.9303C123 30.5694 121.721 33.6549 119.16 36.2269C116.614 38.7705 113.608 40 109.964 40C106.32 40 103.315 38.771 100.767 36.227C98.2314 33.6801 97 30.6055 97 26.9303C97 23.2834 98.212 20.3397 100.767 17.773Z" fill="#393185" stroke="#393185" stroke-width="6"/>
<path d="M166 53.4324C166 49.9243 167.164 47.0964 169.622 44.6275C172.07 42.1815 174.959 41 178.465 41C181.971 41 184.859 42.1815 187.307 44.6275C189.791 47.1218 191 49.9599 191 53.4324C191 56.933 189.771 59.8982 187.308 62.3723C184.859 64.8185 181.971 66 178.465 66C174.959 66 172.072 64.8188 169.622 62.3719C167.184 59.923 166 56.9688 166 53.4324Z" fill="#393185" stroke="#393185" stroke-width="6"/>
<path d="M195.332 109.337C197.585 107.086 200.238 106 203.467 106C206.697 106 209.349 107.085 211.602 109.337C213.89 111.635 215 114.241 215 117.437C215 120.66 213.87 123.385 211.602 125.664C209.349 127.915 206.696 129 203.467 129C200.238 129 197.587 127.915 195.332 125.663C193.089 123.41 192 120.696 192 117.437C192 114.206 193.069 111.61 195.332 109.337Z" fill="#393185" stroke="#393185" stroke-width="6"/>
<path d="M52.7549 61.9958L52.7533 61.9974C50.4734 64.28 47.6378 65.3067 44.5203 65.3067C41.5452 65.3067 38.7362 64.2632 36.4022 61.988L36.3996 61.9855C31.6321 57.3717 31.6321 50.0493 36.3996 45.4355L36.3996 45.4355L36.4021 45.433C38.7363 43.158 41.5428 42.1143 44.5203 42.1143C47.6378 42.1143 50.473 43.141 52.7533 45.4237L52.7549 45.4252C57.3326 49.9879 57.3326 57.4327 52.7549 61.9958Z" stroke="#00A0E3" stroke-width="2"/>
<path d="M33.637 170.969L33.637 170.969L33.6435 170.963C36.8211 167.882 40.3726 166.273 44.5203 166.273C48.6711 166.273 52.2193 167.881 55.3971 170.963L55.3971 170.963L55.4036 170.969C58.3984 173.838 59.9085 177.367 59.9085 181.542C59.9085 185.755 58.4519 189.346 55.3831 192.4L55.3789 192.404C52.2893 195.504 48.6913 197.049 44.5203 197.049C40.3492 197.049 36.7512 195.504 33.6616 192.404L33.6575 192.4C30.5886 189.345 29.1321 185.755 29.1321 181.542C29.1321 177.367 30.6425 173.838 33.637 170.969Z" stroke="#0C54A0" stroke-width="3"/>
<path d="M14.5601 104C18.3197 104 21.3741 105.34 24.0106 107.97C26.6417 110.594 27.9976 113.746 28 117.5C27.9998 121.236 26.6358 124.515 24.011 127.134C21.3851 129.75 18.3382 131 14.5601 131C10.7637 131 7.4777 129.738 4.86693 127.134C2.25659 124.531 1 121.259 1 117.5C1 113.724 2.25075 110.579 4.86693 107.97C7.49044 105.353 10.7826 104 14.5601 104Z" stroke="#00A0E3" stroke-width="2"/>
</svg>
