<svg width="34" height="34" viewBox="0 0 34 34" fill="none" xmlns="http://www.w3.org/2000/svg">
<path d="M10.25 8C9.65326 8 9.08097 8.23705 8.65901 8.65901C8.23705 9.08097 8 9.65326 8 10.25V23.75C8 24.3467 8.23705 24.919 8.65901 25.341C9.08097 25.7629 9.65326 26 10.25 26H23.75C24.3467 26 24.919 25.7629 25.341 25.341C25.7629 24.919 26 24.3467 26 23.75V10.25C26 9.65326 25.7629 9.08097 25.341 8.65901C24.919 8.23705 24.3467 8 23.75 8H10.25ZM13.75 13.25C13.75 13.5152 13.6446 13.7696 13.4571 13.9571C13.2696 14.1446 13.0152 14.25 12.75 14.25C12.4848 14.25 12.2304 14.1446 12.0429 13.9571C11.8554 13.7696 11.75 13.5152 11.75 13.25C11.75 12.9848 11.8554 12.7304 12.0429 12.5429C12.2304 12.3554 12.4848 12.25 12.75 12.25C13.0152 12.25 13.2696 12.3554 13.4571 12.5429C13.6446 12.7304 13.75 12.9848 13.75 13.25ZM15.5 13.25C15.5 13.0511 15.579 12.8603 15.7197 12.7197C15.8603 12.579 16.0511 12.5 16.25 12.5H21.75C21.9489 12.5 22.1397 12.579 22.2803 12.7197C22.421 12.8603 22.5 13.0511 22.5 13.25C22.5 13.4489 22.421 13.6397 22.2803 13.7803C22.1397 13.921 21.9489 14 21.75 14H16.25C16.0511 14 15.8603 13.921 15.7197 13.7803C15.579 13.6397 15.5 13.4489 15.5 13.25ZM15.5 17C15.5 16.8011 15.579 16.6103 15.7197 16.4697C15.8603 16.329 16.0511 16.25 16.25 16.25H21.75C21.9489 16.25 22.1397 16.329 22.2803 16.4697C22.421 16.6103 22.5 16.8011 22.5 17C22.5 17.1989 22.421 17.3897 22.2803 17.5303C22.1397 17.671 21.9489 17.75 21.75 17.75H16.25C16.0511 17.75 15.8603 17.671 15.7197 17.5303C15.579 17.3897 15.5 17.1989 15.5 17ZM16.25 20H21.75C21.9489 20 22.1397 20.079 22.2803 20.2197C22.421 20.3603 22.5 20.5511 22.5 20.75C22.5 20.9489 22.421 21.1397 22.2803 21.2803C22.1397 21.421 21.9489 21.5 21.75 21.5H16.25C16.0511 21.5 15.8603 21.421 15.7197 21.2803C15.579 21.1397 15.5 20.9489 15.5 20.75C15.5 20.5511 15.579 20.3603 15.7197 20.2197C15.8603 20.079 16.0511 20 16.25 20ZM12.75 18C12.4848 18 12.2304 17.8946 12.0429 17.7071C11.8554 17.5196 11.75 17.2652 11.75 17C11.75 16.7348 11.8554 16.4804 12.0429 16.2929C12.2304 16.1054 12.4848 16 12.75 16C13.0152 16 13.2696 16.1054 13.4571 16.2929C13.6446 16.4804 13.75 16.7348 13.75 17C13.75 17.2652 13.6446 17.5196 13.4571 17.7071C13.2696 17.8946 13.0152 18 12.75 18ZM13.75 20.75C13.75 21.0152 13.6446 21.2696 13.4571 21.4571C13.2696 21.6446 13.0152 21.75 12.75 21.75C12.4848 21.75 12.2304 21.6446 12.0429 21.4571C11.8554 21.2696 11.75 21.0152 11.75 20.75C11.75 20.4848 11.8554 20.2304 12.0429 20.0429C12.2304 19.8554 12.4848 19.75 12.75 19.75C13.0152 19.75 13.2696 19.8554 13.4571 20.0429C13.6446 20.2304 13.75 20.4848 13.75 20.75Z" fill="#F3F8FB"/>
<circle cx="17" cy="17" r="16.5" stroke="#F3F8FB"/>
</svg>
