<svg width="34" height="34" viewBox="0 0 34 34" fill="none" xmlns="http://www.w3.org/2000/svg">
<path d="M26.5469 16.1664L11.7119 8.10389C11.5117 8.00311 11.2916 7.95833 11.0715 7.97364C10.8514 7.98894 10.6383 8.06385 10.4516 8.19154C10.2649 8.31922 10.1106 8.49563 10.0026 8.70471C9.89467 8.91379 9.83655 9.14889 9.83354 9.38861V25.5067C9.83167 25.7527 9.88824 25.9952 9.99777 26.2106C10.1073 26.4259 10.2661 26.607 10.4588 26.7361C10.6515 26.8653 10.8716 26.9382 11.0978 26.9479C11.3241 26.9576 11.5488 26.9037 11.7502 26.7914L26.5469 18.7289C26.7661 18.6093 26.9503 18.4258 27.0791 18.1989C27.2079 17.9721 27.2761 17.7107 27.2761 17.4442C27.2761 17.1776 27.2079 16.9163 27.0791 16.6894C26.9503 16.4625 26.7661 16.279 26.5469 16.1594V16.1664Z" fill="#F3F8FB"/>
<circle cx="17" cy="17" r="16.5" stroke="#F3F8FB"/>
</svg>
